<?xml version="1.0" encoding="UTF-8"?>
<svg id="Layer_1" xmlns="http://www.w3.org/2000/svg" version="1.1" viewBox="0 0 1920 1080">
  <!-- Generator: Adobe Illustrator 29.8.2, SVG Export Plug-In . SVG Version: 2.1.1 Build 3)  -->
  <defs>
    <style>
      .st0 {
        fill: #370d1b;
      }

      .st1 {
        fill: #3b0c1e;
      }

      .st2 {
        fill: #5f262d;
      }

      .st3 {
        fill: #364935;
      }

      .st4 {
        fill: #5c1d2e;
      }

      .st5 {
        fill: #3a3c3b;
      }

      .st6 {
        fill: #ba8f58;
      }

      .st7 {
        fill: #5a3525;
      }

      .st8 {
        fill: #a78258;
      }

      .st9 {
        fill: #5b232c;
      }

      .st10 {
        fill: #622a2d;
      }

      .st11 {
        fill: #a9804c;
      }

      .st12 {
        fill: #390f1d;
      }

      .st13 {
        fill: #563222;
      }

      .st14 {
        fill: #925e39;
      }

      .st15 {
        fill: #1e0e11;
      }

      .st16 {
        fill: #9c693e;
      }

      .st17 {
        fill: #593527;
      }

      .st18 {
        fill: #c0975f;
      }

      .st19 {
        fill: #482d22;
      }

      .st20 {
        fill: #7e5b33;
      }

      .st21 {
        fill: #60342b;
      }

      .st22 {
        fill: #391e15;
      }

      .st23 {
        fill: #4a2e22;
      }

      .st24 {
        fill: #633f31;
      }

      .st25 {
        fill: #a58248;
      }

      .st26 {
        fill: #9d784e;
      }

      .st27 {
        fill: #ab8256;
      }

      .st28 {
        fill: #a88659;
      }

      .st29 {
        font-family: LobsterTwo-Bold, 'Lobster Two';
        font-size: 72px;
        font-weight: 700;
      }

      .st29, .st30 {
        isolation: isolate;
      }

      .st29, .st31 {
        fill: #b08342;
      }

      .st32 {
        fill: #a77f41;
      }

      .st33 {
        fill: #5e202b;
      }

      .st34 {
        fill: #a2814b;
      }

      .st35 {
        fill: #380d1e;
      }

      .st36 {
        fill: #b48952;
      }

      .st37 {
        fill: #876446;
      }

      .st38 {
        fill: #374a36;
      }

      .st39 {
        fill: #a67a4b;
      }

      .st40 {
        fill: #8a6d4d;
      }

      .st41 {
        fill: #cc9d41;
      }

      .st42 {
        fill: #37141a;
      }

      .st43 {
        fill: #364734;
      }

      .st44 {
        fill: #55372d;
      }

      .st45 {
        fill: #573325;
      }

      .st46 {
        fill: #93704a;
      }

      .st47 {
        fill: #855638;
      }

      .st48 {
        fill: #a0744d;
      }

      .st49 {
        fill: #a27d50;
      }

      .st50 {
        fill: #331b17;
      }

      .st51 {
        fill: #e9c990;
      }

      .st52 {
        fill: #937144;
      }

      .st53 {
        fill: #997754;
      }

      .st54 {
        fill: #34101c;
      }

      .st55, .st56 {
        fill: #cd9f54;
      }

      .st56 {
        stroke: #c69c6d;
        stroke-miterlimit: 10;
        stroke-width: .2px;
      }

      .st57 {
        fill: #71422e;
      }

      .st58 {
        fill: #232524;
      }

      .st59 {
        fill: #886851;
      }

      .st60 {
        fill: #8d6240;
      }

      .st61 {
        fill: #866846;
      }

      .st62 {
        fill: #162b4a;
      }

      .st63 {
        fill: #634231;
      }

      .st64 {
        fill: #4f1e2d;
      }

      .st65 {
        fill: #573826;
      }

      .st66 {
        fill: #573327;
      }

      .st67 {
        fill: #561c28;
      }

      .st68 {
        fill: #ad8142;
      }

      .st69 {
        fill: #e8cc9d;
      }

      .st70 {
        fill: #672c2e;
      }

      .st71 {
        fill: #553425;
      }

      .st72 {
        fill: #51372a;
      }

      .st73 {
        fill: #794f27;
      }

      .st74 {
        fill: #5e1e2e;
      }

      @keyframes luzEscenario {
  0%, 100% { 
    fill: #0d1b2a; 
    filter: brightness(0.85); 
  }
  50% { 
    fill: #14213d; 
    filter: brightness(1.15); 
  }
}
#fondo-azul {
  animation: luzEscenario 5s ease-in-out infinite;
}

@keyframes destelloVivo {
  0%, 100% { 
    opacity: 0.15; 
    transform: scale(0.7) rotate(0deg); 
  }
  50% { 
    opacity: 1; 
    transform: scale(1.25) rotate(10deg);
    filter: drop-shadow(0 0 5px #fff); 
  }
}

#grupo-estrellas-1, #grupo-estrellas-2, #grupo-estrellas-3 {
  transform-box: fill-box;
  transform-origin: center;
}

#grupo-estrellas-1 { 
  animation: destelloVivo 2.2s ease-in-out infinite; 
}
#grupo-estrellas-2 { 
  animation: destelloVivo 2.8s ease-in-out infinite; 
  animation-delay: 0.6s; 
}
#grupo-estrellas-3 { 
  animation: destelloVivo 3.4s ease-in-out infinite; 
  animation-delay: 1.2s; 
}

@keyframes vaivenTeatral {
  0%, 100% { transform: rotate(-0.4deg); }
  50% { transform: rotate(0.4deg); }
}
@keyframes brilloFoco {
  0%, 100% { opacity: 0.7; filter: drop-shadow(0 0 3px #ffb703); }
  50% { opacity: 1; filter: drop-shadow(0 0 10px #ffdf6b); }
}

#estructura-lamparas {
  animation: vaivenTeatral 7s ease-in-out infinite;
  transform-origin: top center; 
}
#brillo-luces {
  animation: brilloFoco 2s ease-in-out infinite;
}

@keyframes marquesinaFlash {
  0%, 100% {
    fill: #ffb703; 
    filter: drop-shadow(0 0 6px #ffb703);
    opacity: 1;
  }
  50% {
    fill: #503700; 
    filter: none;
    opacity: 0.3;
  }
}

#bombillo-par {
  animation: marquesinaFlash 0.8s infinite steps(1); 
}
#bombillo-impar {
  animation: marquesinaFlash 0.8s infinite steps(1);
  animation-delay: 0.4s; 
}
    </style>
  </defs>
  <g id="Suelo">
    <g>
      <rect class="st14" y="770.7" width="1919.9" height="301.9"/>
      <path class="st14" d="M1920.1,1080H0l391.1-184.5,1130.3,3.9c132.9,60.2,265.8,120.5,398.7,180.7h0Z"/>
      <polygon class="st14" points="744.7 1009.4 959.7 1009.4 959.7 1082.8 694.7 1080.2 744.7 1009.4"/>
      <polygon class="st14" points="698 1080.7 438.4 1081.9 537.9 1011.1 744.7 1011.1 698 1080.7"/>
      <polygon class="st14" points="442.1 1080.3 170.8 1080.3 314.6 1009.8 542.1 1011.1 442.1 1080.3"/>
      <polygon class="st14" points="171.6 1080.3 -96.8 1085.3 99.9 1011.1 311.6 1011.1 171.6 1080.3"/>
      <polygon class="st14" points="960.1 1012.8 747.6 1010.2 825.1 909.4 962.6 909.4 960.1 1012.8"/>
      <polygon class="st14" points="747.6 1011.1 544.2 1011.1 688.4 908.6 826.8 908.6 747.6 1011.1"/>
      <polygon class="st14" points="312.5 1013.6 543.4 1012.8 691.7 908.6 554.4 906.1 312.5 1013.6"/>
      <path class="st14" d="M96.6,1012.8c75.4,0,150.7-.3,226.1-.4,77.2-35.4,154.5-70.9,231.7-106.3-51-3.3-102-6.7-153.1-10l-304.7,116.7h0Z"/>
      <path class="st14" d="M-.5,1051.9c31.5-12.1,63.1-24.2,94.6-36.3,50.3-19.2,100.7-38.3,151.2-57.4-22.9-9.3-45.8-18.7-68.6-28.1-59.4,12.9-118.7,25.8-178.1,38.6.3,27.7.6,55.4,1,83.1h0Z"/>
      <polygon class="st57" points="927.6 1073.6 744.2 1069.4 774.9 1024.2 931.6 1024.2 927.6 1073.6"/>
      <polygon class="st57" points="675.9 1071.1 487.5 1071.1 550.9 1023.6 713.4 1023.6 675.9 1071.1"/>
      <polygon class="st57" points="735.1 999.4 586.7 1000.2 639.2 958.6 766.8 958.6 735.1 999.4"/>
      <polygon class="st57" points="935.1 998.6 785.9 998.6 810.9 960.2 936.8 960.2 935.1 998.6"/>
      <polygon class="st57" points="420 1071.1 226.6 1071.9 330.8 1023.6 489.2 1023.6 420 1071.1"/>
      <polygon class="st57" points="531.7 1000.2 384.2 997.8 465 958.6 589.2 961.1 531.7 1000.2"/>
      <polygon class="st57" points="659.2 916.9 556.7 914.4 497.5 942.7 620.9 942.7 659.2 916.9"/>
      <polygon class="st57" points="801.8 918.6 697.6 915.2 662.6 941.9 783.4 941.9 801.8 918.6"/>
      <polygon class="st57" points="946 913.6 840.9 916.9 823.4 941.9 940.1 943.6 946 913.6"/>
      <polygon class="st57" points="-10.1 1065.3 146.6 1072.8 254.1 1025.3 95.8 1025.3 -10.1 1065.3"/>
      <polygon class="st57" points="40.7 982.7 135.5 989 201.1 961.5 105.2 959.7 40.7 982.7"/>
      <polygon class="st57" points="-103.3 1025.4 -9.4 1039.1 58.2 1016.9 -37.2 1007.5 -103.3 1025.4"/>
      <polygon class="st57" points="405 960.2 274.1 959.4 174.1 997.8 320.8 997.8 405 960.2"/>
      <polygon class="st57" points="405 912.7 510.9 913.6 446.7 941.1 331.6 941.1 405 912.7"/>
      <polygon class="st14" points="1173.6 1008.4 958.6 1008.4 958.6 1081.8 1223.6 1079.2 1173.6 1008.4"/>
      <polygon class="st14" points="1220.2 1079.7 1479.9 1080.9 1380.3 1010.1 1173.6 1010.1 1220.2 1079.7"/>
      <polygon class="st14" points="1476.2 1079.3 1747.5 1079.3 1603.7 1008.8 1376.2 1010.1 1476.2 1079.3"/>
      <polygon class="st14" points="1746.7 1079.3 2015.1 1084.3 1818.3 1010.1 1606.6 1010.1 1746.7 1079.3"/>
      <polygon class="st14" points="958.1 1011.8 1170.7 1009.2 1093.2 908.4 955.6 908.4 958.1 1011.8"/>
      <polygon class="st14" points="1170.7 1010.1 1374.1 1010.1 1229.9 907.6 1091.5 907.6 1170.7 1010.1"/>
      <polygon class="st14" points="1605.8 1012.6 1374.9 1011.8 1226.5 907.6 1363.9 905.1 1605.8 1012.6"/>
      <path class="st14" d="M1821.7,1011.8l-219.5-.8c-81-35.3-162.1-70.6-243.1-105.8,50.6-3.3,101.3-6.7,151.9-10l310.7,116.7h0Z"/>
      <path class="st14" d="M1919.9,1049.2c-31.7-11.2-63.6-22.7-95.8-34.5-51.4-18.9-101.8-38-151.2-57.4,22.9-9.3,45.8-18.7,68.6-28.1,59.4,12.9,118.7,25.8,178.1,38.6,0,27.1,0,54.2.2,81.3h.1Z"/>
      <polygon class="st57" points="990.7 1072.6 1174 1068.4 1143.4 1023.2 986.7 1023.2 990.7 1072.6"/>
      <polygon class="st57" points="1242.4 1070.1 1430.8 1070.1 1367.4 1022.6 1204.9 1022.6 1242.4 1070.1"/>
      <polygon class="st57" points="1183.2 998.4 1331.6 999.2 1279.1 957.6 1151.5 957.6 1183.2 998.4"/>
      <polygon class="st57" points="983.1 997.6 1132.3 997.6 1107.3 959.2 981.5 959.2 983.1 997.6"/>
      <polygon class="st57" points="1498.3 1070.1 1691.7 1070.9 1587.5 1022.6 1429.1 1022.6 1498.3 1070.1"/>
      <polygon class="st57" points="1386.6 999.2 1534.1 996.8 1453.3 957.6 1329.1 960.1 1386.6 999.2"/>
      <polygon class="st57" points="1259 915.9 1361.6 913.4 1420.8 941.7 1297.4 941.7 1259 915.9"/>
      <polygon class="st57" points="1116.5 917.6 1220.7 914.2 1255.7 940.9 1134.8 940.9 1116.5 917.6"/>
      <polygon class="st57" points="972.3 912.6 1077.3 915.9 1094.8 940.9 978.1 942.6 972.3 912.6"/>
      <polygon class="st57" points="1928.4 1064.3 1771.7 1071.8 1664.1 1024.3 1822.5 1024.3 1928.4 1064.3"/>
      <polygon class="st57" points="1877.6 981.7 1782.8 988 1717.2 960.5 1813 958.7 1877.6 981.7"/>
      <polygon class="st57" points="2021.6 1024.4 1927.7 1038.1 1860.1 1015.9 1955.5 1006.5 2021.6 1024.4"/>
      <polygon class="st57" points="1513.3 959.2 1644.1 958.4 1744.2 996.8 1597.5 996.8 1513.3 959.2"/>
      <polygon class="st57" points="1513.3 911.7 1407.4 912.6 1471.6 940.1 1586.6 940.1 1513.3 911.7"/>
    </g>
  </g>
  <g id="fondo-azul">
    <rect class="st62" x="394.6" y="228.7" width="1154" height="602.3"/>
  </g>
  <g id="grupo-estrellas-3">
    <polygon class="st51" points="1015.7 355.3 991.9 363.2 1002.2 386 979.8 374.9 970.9 398.3 963 374.5 940.2 384.8 951.4 362.4 928 353.6 951.7 345.6 941.4 322.8 963.8 334 972.7 310.6 980.6 334.3 1003.4 324 992.2 346.4 1015.7 355.3"/>
    <polygon class="st51" points="1299.3 404.8 1283.5 400.3 1280.7 416.5 1272.7 402.1 1259.3 411.5 1263.8 395.8 1247.7 392.9 1262 384.9 1252.6 371.5 1268.4 376 1271.2 359.9 1279.2 374.2 1292.6 364.8 1288.1 380.6 1304.2 383.5 1289.9 391.4 1299.3 404.8"/>
    <polygon class="st51" points="675 401.5 659.2 397 656.3 413.1 648.4 398.8 635 408.2 639.5 392.4 623.3 389.5 637.7 381.6 628.3 368.2 644 372.7 646.9 356.5 654.9 370.9 668.3 361.5 663.8 377.2 679.9 380.1 665.6 388.1 675 401.5"/>
    <polygon class="st51" points="1247.8 693.2 1232.1 688.7 1229.2 704.8 1221.2 690.5 1207.8 699.8 1212.3 684.1 1196.2 681.2 1210.5 673.3 1201.1 659.8 1216.9 664.3 1219.7 648.2 1227.7 662.5 1241.1 653.2 1236.6 668.9 1252.8 671.8 1238.4 679.7 1247.8 693.2"/>
    <polygon class="st51" points="702.4 688.4 686.6 683.9 683.8 700 675.8 685.7 662.4 695.1 666.9 679.3 650.8 676.5 665.1 668.5 655.7 655.1 671.5 659.6 674.3 643.5 682.3 657.8 695.7 648.4 691.2 664.2 707.3 667 693 675 702.4 688.4"/>
  </g>
  <g id="grupo-estrellas-2">
    <polygon class="st51" points="1320.5 574.5 1340.5 570.9 1354.8 585.4 1357.6 565.2 1375.8 556 1357.4 547.2 1354.3 527.1 1340.2 541.8 1320.1 538.5 1329.8 556.5 1320.5 574.5"/>
    <polygon class="st51" points="614.1 535.7 594.1 532 579.7 546.5 577 526.3 558.8 517.1 577.2 508.3 580.3 488.2 594.4 502.9 614.5 499.6 604.8 517.5 614.1 535.7"/>
    <polygon class="st51" points="580.2 652.2 560.2 648.5 545.8 663 543.1 642.8 525 633.6 543.3 624.8 546.4 604.7 560.5 619.4 580.6 616.1 570.9 634 580.2 652.2"/>
    <polygon class="st51" points="1331.3 691.6 1351.3 688 1365.7 702.4 1368.4 682.2 1386.6 673.1 1368.2 664.2 1365.1 644.1 1351.1 658.8 1331 655.6 1340.6 673.5 1331.3 691.6"/>
    <polygon class="st51" points="558.5 384.5 538.5 380.9 524.2 395.3 521.4 375.1 503.3 366 521.6 357.1 524.7 337 538.8 351.7 558.9 348.5 549.2 366.4 558.5 384.5"/>
    <polygon class="st51" points="1310.5 362.8 1330.5 359.2 1344.8 373.6 1347.6 353.5 1365.8 344.3 1347.4 335.5 1344.3 315.4 1330.2 330.1 1310.1 326.8 1319.8 344.7 1310.5 362.8"/>
  </g>
  <g id="grupo-estrellas-1">
    <polygon class="st51" points="1040.6 700.1 1034.5 700.2 1035.3 706.2 1030.9 702 1027.2 706.7 1027.1 700.7 1021.1 701.4 1025.3 697.1 1020.5 693.4 1026.6 693.3 1025.8 687.3 1030.2 691.5 1033.9 686.7 1034 692.7 1040 692 1035.8 696.3 1040.6 700.1"/>
    <polygon class="st51" points="895.4 696.5 889.4 696.6 890.1 702.6 885.8 698.4 882 703.1 881.9 697.1 876 697.8 880.1 693.5 875.4 689.8 881.4 689.7 880.7 683.7 885 687.9 888.7 683.1 888.8 689.2 894.8 688.4 890.6 692.8 895.4 696.5"/>
    <polygon class="st51" points="975.2 709.7 969.2 709.8 970 715.8 965.6 711.6 961.9 716.4 961.8 710.3 955.8 711.1 960 706.7 955.2 703 961.3 702.9 960.5 696.9 964.9 701.1 968.6 696.4 968.7 702.4 974.7 701.7 970.5 706 975.2 709.7"/>
    <polygon class="st51" points="844 685.3 838 685.4 838.8 691.4 834.4 687.2 830.7 691.9 830.6 685.9 824.6 686.6 828.8 682.3 824 678.6 830.1 678.5 829.3 672.5 833.7 676.7 837.4 671.9 837.5 678 843.5 677.2 839.3 681.5 844 685.3"/>
    <polygon class="st51" points="1090.9 688.1 1084.9 688.2 1085.6 694.2 1081.2 690 1077.6 694.8 1077.4 688.8 1071.4 689.5 1075.6 685.2 1070.9 681.5 1076.9 681.3 1076.2 675.3 1080.5 679.5 1084.2 674.8 1084.3 680.8 1090.3 680.1 1086.1 684.4 1090.9 688.1"/>
  </g>
  <g id="Tarima">
    <path class="st24" d="M961.8,745.2h-41.1c-14.5,32.4-28.9,64.8-43.4,97.2,28.4.3,56.7.5,85.1.8-.2-32.7-.5-65.3-.7-97.9h.1Z"/>
    <polygon class="st16" points="784.3 839.4 880.4 746.3 921 745.2 879.3 840.2 784.3 839.4"/>
    <polygon class="st24" points="714.8 838.3 848.2 745.5 880.4 746.3 784.3 839.4 714.8 838.3"/>
    <polygon class="st16" points="622 833.8 805.4 745.5 848.2 745.5 714.8 838.3 622 833.8"/>
    <polygon class="st24" points="549.2 831 764.8 747.1 805.4 745.5 622 833.8 549.2 831"/>
    <polygon class="st16" points="475.3 824.9 726.5 747.7 764.8 747.1 549.2 831 475.3 824.9"/>
    <polygon class="st16" points="418.6 821 687 747.1 726.5 747.7 475.3 824.9 418.6 821"/>
    <polygon class="st24" points="356.9 814.4 645.9 747.1 687 747.1 418.6 821 356.9 814.4"/>
    <path class="st16" d="M323,803.8l279.5-56.7h43.3c-96.4,22.9-192.8,45.8-289.2,68.6l-45.6-5.3c4-2.2,8-4.5,12-6.7h0Z"/>
    <path class="st24" d="M320.1,798.3c81.4-17,162.7-34.1,244.1-51.1h38.3c-94.8,19.7-189.7,39.5-284.5,59.2.7-2.7,1.4-5.4,2.1-8.1h0Z"/>
    <path class="st16" d="M326.1,772.6c-2,8.7-4,17.3-6,26,81.4-17.1,162.7-34.3,244.1-51.4l-191.7.6c-15.5,8.3-30.9,16.6-46.4,24.9h0Z"/>
    <path class="st24" d="M960.1,745.2h39.3c14,32.2,27.9,64.4,41.8,96.6-27.1.6-54.1,1.1-81.2,1.7v-98.3h.1Z"/>
    <path class="st16" d="M1135.5,839.4l-96.1-93.1-40.6-1.1c14.3,32.4,28.6,64.8,42.9,97.3,31.3-1,62.6-2,93.8-3.1h0Z"/>
    <polygon class="st24" points="1204.9 838.3 1071.6 745.5 1039.3 746.3 1135.5 839.4 1204.9 838.3"/>
    <polygon class="st16" points="1297.7 833.8 1114.3 745.5 1071.6 745.5 1204.9 838.3 1297.7 833.8"/>
    <polygon class="st24" points="1370.5 831 1154.9 747.1 1114.3 745.5 1297.7 833.8 1370.5 831"/>
    <polygon class="st16" points="1444.4 824.9 1193.2 747.7 1154.9 747.1 1370.5 831 1444.4 824.9"/>
    <polygon class="st16" points="1501.1 821 1232.7 747.1 1193.2 747.7 1444.4 824.9 1501.1 821"/>
    <polygon class="st24" points="1562.8 814.4 1273.8 747.1 1232.7 747.1 1501.1 821 1562.8 814.4"/>
    <path class="st16" d="M1596.7,803.8l-279.5-56.7h-43.3c96.4,22.9,192.8,45.8,289.2,68.6,15.2-1.8,30.4-3.5,45.6-5.3-4-2.2-8-4.5-11.9-6.7h0Z"/>
    <path class="st24" d="M1599.6,798.3c-81.4-17-162.7-34.1-244.1-51.1h-38.3c94.8,19.7,189.7,39.5,284.5,59.2-.7-2.7-1.4-5.4-2.1-8.1h0Z"/>
    <path class="st16" d="M1593.6,772.6c2,8.7,4,17.3,6,26-81.4-17.1-162.7-34.3-244.1-51.4l191.7.6c15.5,8.3,30.9,16.6,46.4,24.9h0Z"/>
    <path class="st22" d="M1597.5,814c-96.2,14.6-199.5,26.3-309.2,33.2-117.6,7.4-228.4,8.6-331.4,5.4h-.6c-101.2,3.6-210.2,2.9-326.1-4.2-110-6.7-213.4-18.5-309.2-33.2-.4,25.5-.7,50.9-1.1,76.4,34.5,4.1,69.2,7.9,104.4,11.3,186.4,18.1,365.8,24.8,537.4,22.6h.8c170.1,1.3,347.6-5.8,531.8-23.8,35.1-3.4,69.9-7.2,104.4-11.3-.4-25.5-.7-50.9-1.1-76.4h-.1Z"/>
    <path class="st66" d="M1435.2,823.2c-90.4,7-158.4,9.6-237,12.4-62.7,2.3-144.4,4.6-240.7,5.4-.4,0-.8-.3-1.2-.4-4,0-11.2-.2-15.3-.3-207.8-4-328.2-6.2-457.9-16.1-41.3-3.2-100.5-8.3-172.3-16.7,2.5,7.8,5,15.5,7.5,23.3,24,2.6,59.8,6.2,103.1,10.1,88.9,7.9,227.1,19.9,402.3,21.3,31.4.2,78.5.3,136.2-1.2h1.7c135.4,0,215.1,0,314.8-4.8,84.1-4.1,149.6-10,220.5-16.3,42-3.8,77.3-7.3,103.1-10.1,2.5-7.8,5-15.5,7.5-23.3-42,4.9-101.2,11.2-172.3,16.7h0Z"/>
    <path class="st60" d="M893.3,826.3c2.6,2.7-2.8,9.8-12.8,10.5-10-.6-15.4-7.8-12.8-10.5,2.8-3.5,7.1-6.9,12.8-6.9s10,3.5,12.8,6.9Z"/>
    <path class="st22" d="M893.2,836.1c-8.3,1.9-17,1.9-25.3,0-1.9-.4-3-2.1-2.6-3.6.3-1.2.7-2.3,1-3.5.5-1.5,2.1-2.4,3.6-2,7,1.6,14.2,1.6,21.1,0,1.5-.3,3.2.5,3.6,2,.3,1.2.7,2.3,1,3.5.5,1.5-.7,3.2-2.6,3.6h.2Z"/>
    <path class="st60" d="M766.2,823.8c2.6,2.7-2.8,9.8-12.8,10.5-10-.6-15.4-7.8-12.8-10.5,2.8-3.5,7.1-6.9,12.8-6.9s10,3.5,12.8,6.9Z"/>
    <path class="st22" d="M766.1,833.6c-8.3,1.9-17,1.9-25.3,0-1.9-.4-3-2.1-2.6-3.6.3-1.2.7-2.3,1-3.5.5-1.5,2.1-2.4,3.6-2,7,1.6,14.2,1.6,21.1,0,1.5-.3,3.2.5,3.6,2,.3,1.2.7,2.3,1,3.5.5,1.5-.7,3.2-2.6,3.6h.2Z"/>
    <path class="st60" d="M645.2,818.6c2.6,2.7-3,9.9-13.1,10.3-10-.8-15.2-7.9-12.5-10.6,2.8-3.5,7.1-6.9,12.8-6.8,5.6,0,10,3.6,12.8,7.1Z"/>
    <path class="st22" d="M644.8,828.4c-8.4,1.8-17,1.6-25.3-.4-1.9-.5-3-2.2-2.5-3.7.4-1.2.7-2.3,1.1-3.5.5-1.5,2.1-2.3,3.7-2,6.9,1.7,14.2,1.8,21.2.3,1.6-.3,3.2.5,3.6,2.1.3,1.2.6,2.3,1,3.5.4,1.5-.8,3.2-2.7,3.6h0Z"/>
    <path class="st60" d="M550.4,811.6c2.6,2.7-3,9.9-13.1,10.3-10-.8-15.2-7.9-12.5-10.6,2.8-3.5,7.1-6.9,12.8-6.8,5.6,0,10,3.6,12.8,7.1Z"/>
    <path class="st22" d="M550.1,821.5c-8.4,1.8-17,1.6-25.3-.4-1.9-.5-3-2.2-2.5-3.7.4-1.2.7-2.3,1.1-3.5.5-1.5,2.1-2.3,3.7-2,6.9,1.7,14.2,1.8,21.2.3,1.6-.3,3.2.5,3.6,2.1.3,1.2.6,2.3,1,3.5.4,1.5-.8,3.2-2.7,3.6h0Z"/>
    <path class="st60" d="M1026.4,826.3c-2.6,2.7,2.8,9.8,12.8,10.5,10-.6,15.4-7.8,12.8-10.5-2.8-3.5-7.1-6.9-12.8-6.9s-10,3.5-12.8,6.9Z"/>
    <path class="st22" d="M1026.6,836.1c8.3,1.9,16.9,1.9,25.3,0,1.9-.4,3-2.1,2.6-3.6-.3-1.2-.7-2.3-1-3.5-.5-1.5-2.1-2.4-3.6-2-7,1.6-14.2,1.6-21.1,0-1.6-.3-3.2.5-3.6,2-.3,1.2-.7,2.3-1,3.5-.5,1.5.7,3.2,2.6,3.6h-.2Z"/>
    <path class="st60" d="M1153.5,823.8c-2.6,2.7,2.8,9.8,12.8,10.5,10-.6,15.4-7.8,12.8-10.5-2.8-3.5-7.1-6.9-12.8-6.9s-10,3.5-12.8,6.9Z"/>
    <path class="st22" d="M1153.7,833.6c8.3,1.9,16.9,1.9,25.3,0,1.9-.4,3-2.1,2.6-3.6-.3-1.2-.7-2.3-1-3.5-.5-1.5-2.1-2.4-3.6-2-7,1.6-14.2,1.6-21.1,0-1.6-.3-3.2.5-3.6,2-.3,1.2-.7,2.3-1,3.5-.5,1.5.7,3.2,2.6,3.6h-.2Z"/>
    <path class="st60" d="M1274.6,818.6c-2.6,2.7,3,9.9,13.1,10.3,10-.8,15.2-7.9,12.5-10.6-2.8-3.5-7.1-6.9-12.8-6.8-5.6,0-10,3.6-12.8,7.1h0Z"/>
    <path class="st22" d="M1274.9,828.4c8.4,1.8,17,1.6,25.3-.4,1.9-.5,3-2.2,2.5-3.7-.4-1.2-.7-2.3-1.1-3.5-.5-1.5-2.1-2.3-3.7-2-6.9,1.7-14.2,1.8-21.2.3-1.6-.3-3.2.5-3.6,2.1-.3,1.2-.6,2.3-.9,3.5-.4,1.5.8,3.2,2.7,3.6h0Z"/>
    <path class="st60" d="M1378.8,814.4c-2.6,2.7,3,9.9,13.1,10.3,10-.8,15.2-7.9,12.5-10.6-2.8-3.5-7.1-6.9-12.8-6.8-5.6,0-10,3.6-12.8,7.1h0Z"/>
    <path class="st22" d="M1379.1,824.2c8.4,1.8,17,1.6,25.3-.4,1.9-.5,3-2.2,2.5-3.7-.4-1.2-.7-2.3-1.1-3.5-.5-1.5-2.1-2.3-3.7-2-6.9,1.7-14.2,1.8-21.2.3-1.6-.3-3.2.5-3.6,2.1-.3,1.2-.6,2.3-.9,3.5-.4,1.5.8,3.2,2.7,3.6h0Z"/>
  </g>
  <g id="Texto">
    <g class="st30">
      <g class="st30">
        <g class="st30">
          <g class="st30">
            <text class="st29" transform="translate(665.1 504.8)"><tspan x="0" y="0" xml:space="preserve">EL  </tspan></text>
          </g>
        </g>
      </g>
      <g class="st30">
        <g class="st30">
          <g class="st30">
            <text class="st29" transform="translate(767.5 504.8)"><tspan x="0" y="0">T</tspan></text>
          </g>
        </g>
      </g>
      <g class="st30">
        <g class="st30">
          <g class="st30">
            <text class="st29" transform="translate(815.8 504.8)"><tspan x="0" y="0">EAT</tspan></text>
          </g>
        </g>
      </g>
      <g class="st30">
        <g class="st30">
          <g class="st30">
            <text class="st29" transform="translate(944.7 504.8)"><tspan x="0" y="0">R</tspan></text>
          </g>
        </g>
      </g>
      <g class="st30">
        <g class="st30">
          <g class="st30">
            <text class="st29" transform="translate(992.8 504.8)"><tspan x="0" y="0">O DE LAS</tspan></text>
          </g>
        </g>
      </g>
      <g class="st30">
        <g class="st30">
          <g class="st30">
            <text class="st29" transform="translate(716.8 591.2)"><tspan x="0" y="0" xml:space="preserve">MIL  E</tspan></text>
          </g>
        </g>
      </g>
      <g class="st30">
        <g class="st30">
          <g class="st30">
            <text class="st29" transform="translate(908.2 591.2)"><tspan x="0" y="0">S</tspan></text>
          </g>
        </g>
      </g>
      <g class="st30">
        <g class="st30">
          <g class="st30">
            <text class="st29" transform="translate(946.7 591.2)"><tspan x="0" y="0">TRELLAS</tspan></text>
          </g>
        </g>
      </g>
    </g>
    <path class="st31" d="M679.3,413.9c186.9-6.1,376.5-6.2,563.5,0-186.9,6.2-376.5,6.2-563.5,0h0Z"/>
    <path class="st31" d="M785.8,637.9c30.8-1.9,61.5-2.8,92.3-3.5s61.5-1,92.3-1,61.6.3,92.3,1c30.8.7,61.6,1.6,92.3,3.5-30.8,1.9-61.6,2.8-92.3,3.5-30.8.7-61.5,1-92.3,1s-61.5-.3-92.3-1-61.5-1.6-92.3-3.5h0Z"/>
  </g>
  <g id="bombillo-impar">
    <path class="st51" d="M737,792.4c-.3,3-.4,7,.3,11.5,1.5,9.2,5.8,15.6,8.4,18.9h16c2.6-3.1,7.5-9.8,9-19.5.6-4.3.4-8,0-10.9-2.2-8-9.5-13.4-17.4-13.2-7.6.2-14.2,5.6-16.4,13.2h.1Z"/>
    <path class="st51" d="M521.6,779.8c-.4,3-.5,7,0,11.5,1.4,9.2,5.6,15.7,8.1,19.1h16c2.6-2.8,7.7-9.4,9.3-19.1.7-4.3.5-8,.2-10.9-2.1-8-9.2-13.5-17.2-13.4-7.6,0-14.3,5.3-16.6,12.9h.2Z"/>
    <path class="st51" d="M1055.7,794.9c.3,3,.4,7-.3,11.5-1.5,9.2-5.8,15.6-8.4,18.9h-16.1c-2.6-3.1-7.5-9.8-9-19.5-.6-4.3-.4-8,0-10.9,2.2-8,9.5-13.4,17.4-13.2,7.6.2,14.2,5.6,16.4,13.2h0Z"/>
    <path class="st51" d="M1303.4,786.7c.4,3,.6,7,0,11.5-1.4,9.2-5.6,15.7-8.1,19.1h-16.1c-2.6-3-7.7-9.5-9.3-19.2-.7-4.3-.5-8-.2-10.9,2.1-8,9.2-13.5,17.2-13.4,7.6,0,14.3,5.3,16.6,12.9h0Z"/>
  </g>
  <g id="bombillo-par">
    <path class="st51" d="M864.1,794.9c-.3,3-.4,7,.3,11.5,1.5,9.2,5.8,15.6,8.4,18.9h16c2.6-3.1,7.5-9.8,9-19.5.6-4.3.4-8,0-10.9-2.2-8-9.5-13.4-17.4-13.2-7.6.2-14.2,5.6-16.4,13.2h.1Z"/>
    <path class="st51" d="M616.3,786.7c-.4,3-.5,7,0,11.5,1.4,9.2,5.6,15.7,8.1,19.1h16c2.6-2.8,7.7-9.4,9.3-19.1.7-4.3.5-8,.2-10.9-2.1-8-9.2-13.5-17.2-13.4-7.6,0-14.3,5.3-16.6,12.9h.2Z"/>
    <path class="st51" d="M1182.8,792.4c.3,3,.4,7-.3,11.5-1.5,9.2-5.8,15.6-8.4,18.9h-16.1c-2.6-3.1-7.5-9.8-9-19.5-.6-4.3-.4-8,0-10.9,2.2-8,9.5-13.4,17.4-13.2,7.6.2,14.2,5.6,16.4,13.2h0Z"/>
    <path class="st51" d="M1407.6,782.6c.4,3,.6,7,0,11.5-1.4,9.2-5.6,15.7-8.1,19.1h-16.1c-2.6-2.8-7.7-9.4-9.3-19.1-.7-4.3-.5-8-.2-10.9,2.1-8,9.2-13.5,17.2-13.4,7.6,0,14.3,5.3,16.6,12.9h0Z"/>
  </g>
  <g id="columnatecho">
    <path class="st13" d="M0,94.7l368.8,110.4h591V0H0s0,96,0,94.7Z"/>
    <polygon class="st11" points="815.8 -.3 875.3 197 741.9 194.2 599.7 .3 815.8 -.3"/>
    <path class="st72" d="M609.7.3c44.8,62.6,89.7,125.2,134.5,187.8,41,1.1,82.1,2.2,123.1,3.3C848.9,127.6,830.4,63.8,812,0,744.6,0,677.1.2,609.7.3h0Z"/>
    <path class="st43" d="M629.7,0c39.5,58.5,79.1,117.1,118.6,175.6,32.2-2,64.5-4.1,96.7-6.1-17.8-56.5-35.6-113-53.3-169.5h-162Z"/>
    <polygon class="st34" points="648.6 -.3 750.8 167 835.8 162.6 780.8 .3 648.6 -.3"/>
    <polygon class="st20" points=".5 70.9 388.1 187.1 510.6 185.9 140.5 .8 .5 2.1 .5 70.9"/>
    <polygon class="st2" points="-.8 55.9 391.8 180.9 483.1 177.1 108 -.4 .5 .8 -.8 55.9"/>
    <path class="st20" d="M544.1,194.8C418.3,129.7,292.5,64.7,166.8-.4h23.8l363.8,195c-3.4,0-6.8,0-10.3.1h0Z"/>
    <polygon class="st10" points="261.8 -.4 583.1 194.6 554.4 194.6 190.5 -.4 261.8 -.4"/>
    <path class="st20" d="M280.6.8c104.7,64.6,209.4,129.3,314.1,193.9-3.8,0-7.7,0-11.5-.1L261.8-.4l18.8,1.3h0Z"/>
    <path class="st45" d="M309.3.8c99.5,64.6,198.9,129.3,298.4,193.9h-12.8C490.1,130.1,385.4,65.5,280.6.8h28.8-.1Z"/>
    <polygon class="st17" points="309.3 .8 607.7 194.8 741.9 194.2 599.7 .3 309.3 .8"/>
    <polygon class="st25" points="339 .3 608 184.2 710.8 185.3 549.7 .8 339 .3"/>
    <polygon class="st3" points="358.5 -.3 609.1 177 694.7 178.7 530.2 -.8 358.5 -.3"/>
    <path class="st3" d="M663.3.3c30.8,52.8,61.7,105.6,92.5,158.4l70-4.4L768-.3c-34.9.2-69.8.4-104.8.6h0Z"/>
    <polygon class="st70" points="860.8 2.5 892 164.2 867 171.4 815.8 -.3 859.7 -1.4 860.8 2.5"/>
    <path class="st2" d="M909.7.3l15,156.1h35V-.3s-50,1.1-50,.6Z"/>
    <path class="st48" d="M898.1,2l18.9,153.9,7.8.6L909.7.3h-12.4s1,1.7.8,1.7h0Z"/>
    <polygon class="st7" points="874.7 .6 903.8 159.8 919.7 155.9 897.6 .3 874.7 .6"/>
    <polygon class="st27" points="868.6 -.3 859.7 -1.4 892 164.2 900 162.3 868.6 -.3"/>
    <path class="st13" d="M1921.3,94.7l-369.6,110.4h-592.3V0h961.9s0,95.9,0,94.6h0Z"/>
    <polygon class="st11" points="1103.5 -.3 1044.1 197 1177.4 194.2 1319.7 .3 1103.5 -.3"/>
    <path class="st72" d="M1309.7.3c-44.8,62.6-89.7,125.2-134.5,187.8-41,1.1-82.1,2.2-123.1,3.3C1070.5,127.6,1089,63.8,1107.4,0,1174.8,0,1242.2.2,1309.7.3h0Z"/>
    <path class="st43" d="M1289.7,0c-39.6,58.5-79.1,117.1-118.6,175.6-32.2-2-64.5-4.1-96.7-6.1,17.8-56.5,35.6-113,53.3-169.5h162,0Z"/>
    <polygon class="st34" points="1270.8 -.3 1168.6 167 1083.5 162.6 1138.5 .3 1270.8 -.3"/>
    <polygon class="st20" points="1920.9 70.9 1532.5 187.1 1409.7 185.9 1780.6 .8 1920.9 2.1 1920.9 70.9"/>
    <polygon class="st2" points="1922.2 55.9 1528.7 180.9 1437.3 177.1 1813.2 -.4 1920.9 .8 1922.2 55.9"/>
    <path class="st20" d="M1375.3,194.8c125.8-65.1,251.5-130.1,377.3-195.2h-23.8l-363.8,195.1c3.4,0,6.8,0,10.3.1h0Z"/>
    <polygon class="st10" points="1657.6 -.4 1336.2 194.6 1365 194.6 1728.8 -.4 1657.6 -.4"/>
    <path class="st20" d="M1638.8.8c-104.7,64.6-209.4,129.3-314.1,193.9,3.8,0,7.7,0,11.5-.1L1657.6-.4l-18.8,1.3h0Z"/>
    <path class="st45" d="M1610,.8c-99.5,64.6-198.9,129.3-298.4,193.9h12.8c104.8-64.6,209.6-129.3,314.4-193.9,0,0-28.8,0-28.8,0Z"/>
    <polygon class="st17" points="1610 .8 1311.6 194.8 1177.4 194.2 1319.7 .3 1610 .8"/>
    <polygon class="st25" points="1580.3 .3 1311.4 184.2 1208.6 185.3 1369.7 .8 1580.3 .3"/>
    <polygon class="st3" points="1560.9 -.3 1310.2 177 1224.7 178.7 1389.2 -.8 1560.9 -.3"/>
    <path class="st3" d="M1256.1.3c-30.8,52.8-61.7,105.6-92.5,158.4l-70-4.4L1151.3-.3c34.9.2,69.8.4,104.8.6h0Z"/>
    <polygon class="st70" points="1058.5 2.5 1027.4 164.2 1052.4 171.4 1103.5 -.3 1059.6 -1.4 1058.5 2.5"/>
    <path class="st2" d="M1009.6.3l-15,156.1h-35V-.3s50,1.1,50,.6Z"/>
    <path class="st48" d="M1021.3,2l-18.9,153.9-7.8.6L1009.6.3h12.4s-1,1.7-.8,1.7h0Z"/>
    <polygon class="st7" points="1044.6 .6 1015.6 159.8 999.6 155.9 1021.7 .3 1044.6 .6"/>
    <polygon class="st27" points="1050.7 -.3 1059.6 -1.4 1027.4 164.2 1019.4 162.3 1050.7 -.3"/>
    <polygon class="st23" points="351.9 772.1 -2 774.4 -.4 674.3 352.5 671.6 351.9 772.1"/>
    <polygon class="st63" points="352.9 672.2 .2 676.8 .2 665.5 353 665.5 352.9 672.2"/>
    <polygon class="st67" points="353.3 330.1 97 290 95.8 667.2 353.3 667.2 353.3 330.1"/>
    <polygon class="st44" points="97.8 666 78.3 666 78.3 286.2 100.8 288.8 97.8 666"/>
    <polygon class="st42" points="78.3 668.5 -3.2 668.5 -3.2 275.9 78.3 284.9 78.3 668.5"/>
    <polygon class="st23" points="1567.8 772.1 1921.8 774.4 1920.1 674.3 1567.2 671.6 1567.8 772.1"/>
    <polygon class="st63" points="1566.8 672.2 1919.5 676.8 1919.5 665.5 1566.7 665.5 1566.8 672.2"/>
    <polygon class="st67" points="1566.4 330.1 1822.7 290 1824 667.2 1566.4 667.2 1566.4 330.1"/>
    <polygon class="st44" points="1822 666 1841.5 666 1841.5 286.2 1819 288.8 1822 666"/>
    <polygon class="st42" points="1841.5 668.5 1922.9 668.5 1922.9 275.9 1841.5 284.9 1841.5 668.5"/>
    <path class="st68" d="M-1.8,92.1l366.3,102.5h625.1v60H370.8v549.7h-21.3c-1.2-154.9-2.5-309.8-3.8-464.7-116.3-17.9-232.6-35.8-348.8-53.8.3-32.6.6-65.1.8-97.7.2-32,.4-64.1.5-96.1h0Z"/>
    <polygon class="st38" points="-.5 124.6 352.1 212.1 352.1 313.4 -3 254.6 -.5 124.6"/>
    <path class="st68" d="M1922.7,92.1l-366.3,102.5h-625.2v60h618.9v549.7h21.3c1.2-154.9,2.5-309.8,3.8-464.7,116.3-17.9,232.6-35.8,348.8-53.8-.3-32.6-.6-65.1-.8-97.7-.2-32-.4-64.1-.5-96.1h0Z"/>
    <polygon class="st38" points="1921.4 124.6 1568.9 212.1 1568.9 313.4 1923.9 254.6 1921.4 124.6"/>
    <path class="st21" d="M370.8,209.2h37.8l363.2.8c23.3-3.8,41.8-8.8,54.2-12.5,41.7-12.6,57.8-24.4,92.5-30,20-3.2,36.7-2.9,47-2.2l.8,71.1c-234.2,1.5-331.5,2.1-334.5,1.9h-.7s-4.5-.2-9-.3c-11.4-.4-55,2.9-55,2.9-19.5,1.4-90.1,4.7-95.5,6.8-1.4.5-2.7,1.1-2.7,1.1-1.4.6-2.9,1.3-4.7,2.2-26.6,13-39.8,35.3-44.6,44.8-3,6-6.9,15.1-9.2,26.9-.2,1.7-.5,4.7-.8,8.5-.7,9.9-.5,17.4-.4,19,2.4,81.1-1.5,162.3-.8,243.4.4,49.5.7,121.2.3,210.9h-37.8V209.2h0Z"/>
    <path class="st31" d="M406.9,332c.2-6.6,1.3-16.2,5.4-27.1,8-21.2,22.1-33.4,29.2-39.3,18.8-15.7,37.9-20.9,49.5-23.9,5.5-1.4,15.1-3.4,68.2-3.7,15.1,0,27.5,0,36.2.1,4.5,0,10.5-.1,17.8-.1h8.9c8.1,0,103.2-.1,342.8-.9,0,6-.3,11.9-.4,17.9-175.4,0-250.7.2-282,.3h-23.5c-45.9-.2-59.9-1.4-91.4-1.4s-58.2.1-72.1,5c-2.5.9-28.2,10.2-48.2,32.6-14.7,16.4-16.3,28.6-16.7,32.4-.4,4.2,0,7.8.3,10.3.4,153.6.8,307.3,1.2,461l-27.7,9.7,2.7-472.8h-.2,0Z"/>
    <path class="st21" d="M1557.9,208.8h-37.8c-121.1.3-242.1.5-363.2.8-23.3-3.8-41.8-8.8-54.2-12.5-41.1-12.4-57.4-24.3-92.5-30-19-3.1-34.9-3-45-2.5v72.5c217.9,1.7,310.6,1.7,331.8.8h.7s4.5-.2,9-.3c11.4-.4,55,2.9,55,2.9,19.5,1.4,90.1,4.7,95.5,6.8,1.4.5,2.7,1.1,2.7,1.1,1.4.6,2.9,1.3,4.7,2.2,26.6,13,39.8,35.3,44.6,44.8,3,6,6.9,15.1,9.2,26.9.2,1.7.6,4.7.8,8.5.7,9.9.5,17.4.4,19-2.4,81.1,1.5,162.3.8,243.4-.4,49.5-.7,121.2-.3,210.9h37.8V208.8h0Z"/>
    <path class="st31" d="M1521.9,331.6c-.2-6.6-1.3-16.2-5.4-27.1-8-21.2-22.1-33.4-29.2-39.3-18.8-15.7-37.9-20.9-49.5-23.9-5.5-1.4-15.1-3.4-68.2-3.7-15.1,0-27.6,0-36.2.1-4.5,0-10.6-.1-17.8-.1h-8.9c-8.1,0-103.2-.1-342.8-.9,0,6,.3,11.9.4,17.9,175.4,0,250.7.2,282,.3h23.5c45.9-.2,59.9-1.4,91.4-1.4s58.2.1,72.1,5c2.5.9,28.2,10.2,48.2,32.6,14.7,16.4,16.3,28.6,16.7,32.4.4,4.2,0,7.8-.3,10.3-.4,153.6-.8,307.3-1.2,461l27.7,9.7-2.7-472.8h.2Z"/>
    <path class="st32" d="M1163,188.1c-1.2-7.3-8.5-12.9-15-12.1-.3,0-6.7,1-8.3,6.2-1.3,4.2,1.3,7.9,1.7,8.3-4.1,1.3-10.2,2.7-17.5,2.5-11.4-.3-20.1-4.2-24.6-6.7-20.2-10.1-47.7-21.2-81.7-27.5-19.3-3.6-36.9-4.9-52.1-5h-.5c-1.8.1-4.7.3-6.5.4-6.6.4-13.1.9-19.7,1.3,0,0-14.6,1.4-27.6,3.8-34,6.3-61.5,17.4-81.7,27.5-4.5,2.5-13.2,6.4-24.6,6.7-7.3.2-13.4-1.2-17.5-2.5.3-.5,3-4.2,1.7-8.3-1.7-5.3-8-6.2-8.3-6.2-6.5-.8-13.8,4.8-15,12.1-1.2,7.6,4.8,13.2,5.3,13.6,1.3,1.1,3.4,2.6,6.2,3.8,6.9,2.7,13.2.8,20.1-.7,17.2-3.7,25.9-5.4,35.8-8.8,18-6.1,20.3-7.3,34.2-12.9,26.2-10.5,62.2-15.1,65.4-15.4,8.2-.9,19.1-1.7,32-1.6h.6c12.6-.3,23,.4,30.4,1.2,24.3,2.4,48.9,8.8,65.4,15.4,13.9,5.6,16.1,6.8,34.2,12.9,10,3.4,18.6,5.1,35.8,8.8,6.9,1.5,13.2,3.4,20.1.7,2.8-1.1,4.9-2.6,6.2-3.8.5-.5,6.6-6.1,5.3-13.6h.2Z"/>
  </g>
  <g id="Cortina">
    <g>
      <g>
        <path class="st35" d="M1352.8,258c-6.5,5.5-8.7,13.6-10,23.9-4.5,34.5,4.1,63.7,5,66.8,26.6,90.9,18.6,77.2,30.1,106.8,11.1,28.5,25.7,66.2,45.1,91.8,4.9,6.5,13,18.9,29.1,43.9,3.2,5,5.2,8.2,7,13,6.5,17.7.9,33.9-2,44.9-6.4,23.8-5.2,46.8-3,92.8,1,20.2,2.7,28.9-1,43.9-3.8,15-9,20.2-6,27.9,5.8,15,35.3,20.9,42.1,13,2.9-3.4,1.8-9.6,4-10,2.2-.3,3.3,5.8,8,8,5.8,2.6,13.3-2.5,14-3,9.9-6.7,10-28.9,2-54.9-7-260.8-6-381.1,0-411,.9-4.7,4.9-21.6-2-39.9s-21.6-29.8-32.1-37.9c-6.9-5.4-18.6-14.3-36.1-20-9.3-3-10.1-1.8-56.2-4-23.5-1.1-31.2-1.8-38.1,4h0Z"/>
        <path class="st4" d="M1329.5,256.5c8.3.5,16.4,1.1,24.5-.6.4,0,.7-.2,1.1-.4-3.6,14.1-7.2,32.3-8.8,53.7-.7,9.9-2.4,41.5,5.3,81.8,0,0,13.1,67.5,63.5,145.7,17,26.3,24.7,35.9,24.7,35.9,11.2,13.9,16.3,17.5,20.7,27.3,6.6,14.5,4.8,27.4,3.3,41.9-2.3,23.2-7.5,74.3-6.7,117.7.3,14.6,1.3,35.9-7.3,39.2-3,1.2-6.7,0-14-2.7-11.2-3.9-17-5.2-19.4-9.3-3.6-6.1.9-14.4,4-21.3,2.1-4.7,5-20,10.7-50.5,4.5-23.9,3.7-29.1,9.4-65.8,1.2-7.5,1.6-15.2,3.3-22.6,2.4-10.4,4.7-14.5,2.7-20-1.5-4-3.7-4.4-12-12-5.3-4.8-4.6-4.9-15.4-16-8.8-9.1-15.3-15.3-16.7-16.6-30-29.4-62.2-111.7-62.2-111.7-12.4-22.2-30.1-60.8-34.8-111.7-3-32.8.2-60.9,4.4-81.8,6.3,1.1,13.2-.5,19.5-.2h.2Z"/>
        <path class="st64" d="M1406.2,253.6c-22.2,63.1-19.2,113.6-15.4,140.3,5.2,36.9,17.4,67.8,23.1,81.8,11.1,27.7,23.8,49.9,38.4,75.8,8.6,15.1,12.8,22.7,20.1,32.6,6.2,8.6,8.2,10.2,10.7,15.3,7.6,15.8,1.8,32.1,2,39.9,1.5,72.5-9.9,74-8,130.7.5,14.6,2.1,38.9-5,40.9-3.1.9-5.3-3.2-14-7-12.5-5.3-18.6-1.5-23.1-5-7.7-6,1.4-23.8,10-58.9,1.8-7.1,5.2-27.2,12.3-67.3,6.8-38.8.4-5.3,4-27.9,3.6-22.4,5.6-28.8,1.8-36.4-3-5.9-6-5.6-16.5-15.5-7.2-6.8-11.4-12.2-18.7-21.7-30.6-39.6-53.9-87.4-53.9-87.4-12.5-25.6-42.8-87.6-48.6-144.5-3-29.3.7-55.9.7-55.9,1.7-12.4,4.1-22.4,6-29.3,24.7-.2,49.5-.4,74.2-.7h0v.2h0Z"/>
        <path class="st41" d="M1522.8,774.8c-5.7-.3-13.5,0-18.3,3-4.5,3-2.6,6.1-7,8.5-4.9,2.5-12.5,1.5-23.2,0-12.6-1.7-17.2-3.9-21.1-2.1-4.4,2-2.9,6.9-5.6,7.3-2.9.5-3.7-5.3-10.7-6.9-5.4-1.2-8.4,1.5-17,.5-5.1-.6-6.3-1.8-8.6-1.2-3.8,1-4.1,5.4-5.2,10.8-3.4,15.5-9.8,18-5.8,22.6,3.6,4,12,5.8,18.3,5.8,11.2,0,19.5-5.4,22.9-3.4,1.6,1,0,2.4,1.2,5.3,1.4,3.5,5.4,5.6,7.5,6.7,9.7,5,27.2,4.9,38.8,1.1,1.1-.3,6.6-2.2,14.3-4.7,3.6-1.1,5.9-1.8,9.1-2.2,4.5-.6,8.4-.3,10.8,0l-.6-51h.2,0Z"/>
      </g>
      <g>
        <path class="st55" d="M1452.4,656.3c1,2.3,1.6,4.3,1.8,5.3,2.2,9.2,1.1,29.2,1.1,29.2-.6,10-.8,5.9-1.1,12.3-.3,5.6,0,7.4-1.5,8.7-1.7,1.4-3.6.5-12.3-.4-7.9-.8-9.2-.4-10.5-1.8-2-2-1-4.9.4-12.8.6-3.6-1.5,8.2,2.3-16.3.6-4,1.6-10.3,3.6-18.3,1.7-7.1,2.7-9.3,5.1-10.5,2.8-1.3,7.1-.9,9.3,1.2.7.7,1.1,1.6,1.9,3.4h-.1Z"/>
        <path class="st55" d="M1454.1,634.8l-11.3-1-1.4,12.7,11.5,1.2,1.2-13h0Z"/>
        <ellipse class="st55" cx="1445.5" cy="650.5" rx="7.9" ry="8.4" transform="translate(725.2 2062.5) rotate(-87.2)"/>
        <path class="st55" d="M1454.1,623.1c-.4,4.1-.7,8.2-1.1,12.3l-9.3-.5.9-12.8,9.5,1h0Z"/>
        <path class="st55" d="M1520.6,572.3c-1.5-1-9.5,8.9-21,19.8-1.1,1-7.7,7.3-17.2,14.5-4.7,3.5-8.8,6.3-14.4,8.5-5.2,2-8.8,3.4-13.4,2.7-5-.8-8.7-3.8-10.1-2.5-.3.3-.4,1.5-.6,4-.2,1.7,0,2.1,0,2.6.3,1.1,1,2.2,1.8,2.8,1.1.8,2.3.8,6.5.3,8.4-1,11.6-2.1,13.8-3,.2,0,.5-.2.6-.3,6.9-3,12.8-6.4,18.3-10.1,0,0,11.3-7.5,22.6-18,6.7-6.2,4.8-5.7,8.1-8.1,1.8-1.4,4.2-2.9,4.8-5.5,0-.4,0-1.4.2-3.3,0-2.8.2-4.2,0-4.3h0Z"/>
        <path class="st55" d="M1521.6,566.8c-1.4-1.1-10.6,7.8-23.4,17.5-1.2.9-8.6,6.5-19,12.5-5.1,3-9.5,5.3-15.5,7-5.3,1.5-9.2,2.5-13.8,1.2-4.2-1.2-6.7-4.1-8.4-3-1.3.8-1.1,3-1.1,4s.2,3,1.9,4.4c.3.3,1.3,1,4.3,1.4,1.4.2,6.3.7,14.2-1.6.3,0,.5,0,.7-.2,7.3-2.2,13.6-5,19.6-8.1,0,0,12.3-6.3,24.8-15.5,7.4-5.5,5.5-5.2,9-7.2,2-1.2,4.6-2.4,5.4-5,0-.4.3-1.4.6-3.2.4-2.8.6-4.1.5-4.3h.2Z"/>
      </g>
    </g>
    <g>
      <g>
        <path class="st35" d="M576,258c6.5,5.5,8.7,13.6,10,23.9,4.5,34.5-4.1,63.7-5,66.8-26.6,90.9-18.6,77.2-30.1,106.8-11.1,28.5-25.7,66.2-45.1,91.8-4.9,6.5-13,18.9-29.1,43.9-3.2,5-5.2,8.2-7,13-6.5,17.7-.9,33.9,2,44.9,6.4,23.8,5.2,46.8,3,92.8-1,20.2-2.7,28.9,1,43.9,3.8,15,9,20.2,6,27.9-5.8,15-35.3,20.9-42.1,13-2.9-3.4-1.8-9.6-4-10s-3.3,5.8-8,8c-5.8,2.6-13.3-2.5-14-3-9.9-6.7-10-28.9-2-54.9,7-260.8,6-381.1,0-411-.9-4.7-4.9-21.6,2-39.9s21.6-29.8,32.1-37.9c6.9-5.4,18.6-14.3,36.1-20,9.3-3,10.1-1.8,56.2-4,23.5-1.1,31.2-1.8,38.1,4h0Z"/>
        <path class="st4" d="M599.2,256.5c-8.3.5-16.4,1.1-24.5-.6-.4,0-.7-.2-1.1-.4,3.6,14.1,7.2,32.3,8.8,53.7.7,9.9,2.5,41.5-5.3,81.8,0,0-13,67.5-63.5,145.7-17,26.3-24.7,35.9-24.7,35.9-11.2,13.9-16.3,17.5-20.7,27.3-6.6,14.5-4.8,27.4-3.3,41.9,2.3,23.2,7.5,74.3,6.7,117.7-.3,14.6-1.4,35.9,7.4,39.2,3,1.2,6.7,0,14-2.7,11.2-3.9,17-5.2,19.4-9.3,3.6-6.1-.9-14.4-4-21.3-2.1-4.7-5-20-10.7-50.5-4.5-23.9-3.7-29.1-9.4-65.8-1.2-7.5-1.6-15.2-3.3-22.6-2.5-10.4-4.7-14.5-2.7-20,1.5-4,3.7-4.4,12-12,5.3-4.8,4.6-4.9,15.4-16,8.8-9.1,15.3-15.3,16.7-16.6,30-29.4,62.2-111.7,62.2-111.7,12.4-22.2,30-60.8,34.8-111.7,3-32.8-.2-60.9-4.4-81.8-6.3,1.1-13.2-.5-19.5-.2h-.3Z"/>
        <path class="st64" d="M522.5,253.6c22.2,63.1,19.2,113.6,15.4,140.3-5.2,36.9-17.4,67.8-23.1,81.8-11.1,27.7-23.8,49.9-38.4,75.8-8.6,15.1-12.9,22.7-20.1,32.6-6.2,8.6-8.2,10.2-10.7,15.3-7.6,15.8-1.8,32.1-2,39.9-1.5,72.5,9.9,74,8,130.7-.5,14.6-2.1,38.9,5,40.9,3.1.9,5.3-3.2,14-7,12.5-5.3,18.6-1.5,23.1-5,7.7-6-1.4-23.8-10-58.9-1.8-7.1-5.2-27.2-12.3-67.3-6.8-38.8-.4-5.3-4-27.9-3.6-22.4-5.6-28.8-1.8-36.4,3-5.9,6-5.6,16.5-15.5,7.2-6.8,11.4-12.2,18.7-21.7,30.6-39.6,53.9-87.4,53.9-87.4,12.5-25.6,42.8-87.6,48.6-144.5,3-29.3-.7-55.9-.7-55.9-1.7-12.4-4.1-22.4-6-29.3-24.7-.2-49.5-.4-74.2-.7h0v.2h0Z"/>
        <path class="st41" d="M406,774.8c5.7-.3,13.5,0,18.3,3,4.5,3,2.6,6.1,7,8.5,4.9,2.5,12.5,1.5,23.2,0,12.6-1.7,17.2-3.9,21.1-2.1,4.4,2,2.9,6.9,5.5,7.3,2.9.5,3.7-5.3,10.6-6.9,5.4-1.2,8.4,1.5,17,.5,5.1-.6,6.3-1.8,8.6-1.2,3.8,1,4.1,5.4,5.2,10.8,3.4,15.5,9.8,18,5.8,22.6-3.6,4-12,5.8-18.3,5.8-11.2,0-19.5-5.4-22.9-3.4-1.6,1,0,2.4-1.2,5.3-1.4,3.5-5.4,5.6-7.5,6.7-9.7,5-27.2,4.9-38.8,1.1-1-.3-6.6-2.2-14.3-4.7-3.6-1.1-5.9-1.8-9.1-2.2-4.5-.6-8.4-.3-10.8,0l.6-51h0Z"/>
      </g>
      <g>
        <path class="st55" d="M476.3,656.3c-1,2.3-1.6,4.3-1.9,5.3-2.2,9.2-1.1,29.2-1.1,29.2.6,10,.8,5.9,1.1,12.3.3,5.6,0,7.4,1.5,8.7,1.7,1.4,3.6.5,12.3-.4,7.9-.8,9.2-.4,10.5-1.8,2-2,1-4.9-.4-12.8-.6-3.6,1.5,8.2-2.3-16.3-.6-4-1.6-10.3-3.6-18.3-1.7-7.1-2.7-9.3-5.1-10.5-2.8-1.3-7.1-.9-9.3,1.2-.7.7-1.1,1.6-1.9,3.4h.2,0Z"/>
        <path class="st55" d="M474.6,634.8c3.8-.3,7.5-.6,11.3-1l1.4,12.7-11.5,1.2-1.2-13h0Z"/>
        <ellipse class="st55" cx="481.5" cy="651.6" rx="8.4" ry="7.9" transform="translate(-31.3 24.3) rotate(-2.8)"/>
        <path class="st55" d="M474.6,623.1c.4,4.1.7,8.2,1.1,12.3l9.3-.5-.9-12.8-9.5,1h0Z"/>
        <path class="st55" d="M408.1,572.3c1.5-1,9.5,8.9,21,19.8,1.1,1,7.7,7.3,17.2,14.5,4.7,3.5,8.8,6.3,14.4,8.5,5.2,2,8.8,3.4,13.4,2.7,5-.8,8.7-3.8,10.1-2.5.3.3.4,1.5.6,4,.1,1.7.1,2.1,0,2.6-.3,1.1-1,2.2-1.8,2.8-1.1.8-2.3.8-6.5.3-8.4-1-11.6-2.1-13.8-3-.2,0-.5-.2-.6-.3-7-3-12.8-6.4-18.3-10.1,0,0-11.4-7.5-22.6-18-6.7-6.2-4.8-5.7-8-8.1-1.9-1.4-4.2-2.9-4.8-5.5,0-.4-.1-1.4-.2-3.3-.1-2.8-.2-4.2,0-4.3h-.1Z"/>
        <path class="st55" d="M407.1,566.8c1.4-1.1,10.6,7.8,23.4,17.5,1.2.9,8.6,6.5,19,12.5,5.1,3,9.5,5.3,15.5,7,5.3,1.5,9.2,2.5,13.8,1.2,4.2-1.2,6.7-4.1,8.4-3,1.3.8,1.1,3,1.1,4s-.2,3-1.9,4.4c-.4.3-1.3,1-4.4,1.4-1.4.2-6.3.7-14.2-1.6-.3,0-.5,0-.6-.2-7.3-2.2-13.6-5-19.6-8.1,0,0-12.3-6.3-24.8-15.5-7.5-5.5-5.5-5.2-9-7.2-2-1.2-4.6-2.4-5.5-5-.1-.4-.3-1.4-.6-3.2-.4-2.8-.6-4.1-.5-4.3h0Z"/>
      </g>
    </g>
    <g>
      <path class="st56" d="M1341.5,338.1c-1.1,2-1.8,3.9-2.1,4.8-2.8,8.5-3.4,27.3-3.4,27.3-.3,9.5.3,5.6,0,11.6-.2,5.3-.6,7,.7,8.3,1.4,1.5,3.2.8,11.2.6,7.2-.1,8.3.4,9.7-.8,1.9-1.7,1.3-4.5.7-12-.3-3.4.7,7.8-.7-15.5-.2-3.8-.6-9.8-1.8-17.5-1-6.8-1.7-9-3.8-10.2-2.4-1.5-6.4-1.4-8.5.4-.7.6-1.1,1.4-2,3h0Z"/>
      <path class="st56" d="M1341.7,317.8h10.3l.2,12-10.5.2v-12.3h0Z"/>
      <ellipse class="st56" cx="1347.1" cy="333.8" rx="7.7" ry="7.5"/>
      <path class="st55" d="M1342.6,253.9v63.6l8.4,1.2.2-66.1-8.7,1.2h0Z"/>
    </g>
    <g>
      <path class="st6" d="M1341.7,261.2c0,2.3,2.5,10.5,7.3,27.1,3.4,11.6,8,19.8,11.8,26.6,3.4,6,8.1,14.3,16.4,23.5,5.4,6,12.9,14.2,25.4,21.3,4.3,2.4,17.2,9.2,35.4,11.1,6.7.7,15.9,1.6,27.3-1.3,8.1-2.1,13.4-5.1,21.8-9.8,11-6.1,16.6-9.3,21.8-15.5,8.5-10.1,9.3-20.4,11.4-20,1.7.3,2.4,7.5.9,13.8-1.6,6.6-5.2,10.9-9.1,15.5-5.4,6.4-10.8,10.4-13.2,12-12.3,8.5-24.2,11.1-32.7,12.9-5.8,1.2-15.7,3.2-28.6,2.2-7.6-.6-21.8-2.5-37.3-10.6-14.6-7.7-23-17-30-24.9-4.6-5.1-13.2-15.5-20.4-30.2-2-4-4.7-11.1-10-25.3,0,0-1.4-3.8-5.9-19.1,0,0-.5-1.8-1.8-10.6-.6-4.1-.8-5.9.4-7.1,1.4-1.4,4.1-1.5,5.9-.4,3.1,1.8,3.1,6.7,3.2,8.9h0Z"/>
      <path class="st1" d="M1519.3,334.2c-2.5,7.4-9.6,11.8-23.9,20.6-12.6,7.8-24,14.8-40.9,17.3-4.5.7-20.6,2.6-38.8-3.3-33-10.8-48.3-39.5-62-65.2-4.6-8.6-22-41.2-12.3-49.9,2.1-1.9,7.3-1.9,17.7-2,12.6-.1,16.8,1.2,29.3,1.3,8.6,0,8.3-.5,18.4-.7,9.1-.1,19.9-.3,30.7,1.3,20.7,3.2,35.4,12.1,39.5,14.6,5.4,3.4,16.5,11.1,26.6,24.6,9.1,12.2,20.4,27.2,15.7,41.3h0Z"/>
    </g>
    <g>
      <path class="st56" d="M587.6,336.1c-1.1,2-1.8,3.9-2.1,4.8-2.8,8.5-3.4,27.3-3.4,27.3-.3,9.5.3,5.6,0,11.6-.2,5.3-.6,7,.7,8.3,1.4,1.5,3.2.8,11.2.6,7.2-.1,8.3.4,9.7-.8,1.9-1.7,1.3-4.5.7-12-.3-3.4.7,7.8-.7-15.5-.2-3.8-.6-9.8-1.8-17.5-1-6.8-1.7-9-3.8-10.2-2.4-1.5-6.4-1.4-8.5.4-.7.6-1.1,1.4-2,3h0Z"/>
      <path class="st56" d="M587.8,315.8h10.3l.2,12-10.5.2v-12.3h0Z"/>
      <ellipse class="st56" cx="593.2" cy="331.8" rx="7.7" ry="7.5"/>
      <path class="st55" d="M588.8,251.9v63.6l8.5,1.2.2-66.1-8.7,1.2h0Z"/>
    </g>
    <g>
      <path class="st6" d="M591.7,250.4h0c-1.6,2.2-1.7,5.8-1.7,7.5s-2.5,10.5-7.3,27.1c-3.4,11.6-8,19.8-11.8,26.6-3.4,6-8.1,14.3-16.4,23.5-5.4,6-12.9,14.2-25.5,21.3-4.3,2.4-17.2,9.2-35.4,11.1-6.6.7-15.9,1.6-27.3-1.3-8.1-2.1-13.5-5.1-21.8-9.8-11-6.1-16.6-9.3-21.8-15.5-8.5-10.1-9.3-20.4-11.4-20-1.7.3-2.4,7.5-.9,13.8,1.5,6.6,5.2,10.9,9.1,15.5,5.4,6.4,10.8,10.4,13.2,12,12.3,8.5,24.2,11.1,32.7,12.9,5.9,1.2,15.7,3.2,28.6,2.2,7.6-.6,21.8-2.5,37.3-10.6,14.6-7.7,23-17,30-24.9,4.6-5.1,13.2-15.5,20.5-30.2,2-4,4.7-11.1,10-25.3,0,0,1.4-3.8,5.9-19.1,0,0,.5-1.8,1.8-10.6.4-2.7.6-4.4.3-5.6-2.7-.6-5.5-1.2-8.1-.6h0Z"/>
      <path class="st1" d="M586.6,248.9c-3-.5-7.5-.5-14.1-.6-12.6-.1-16.8,1.2-29.3,1.3-8.6,0-8.3-.5-18.4-.7-9.1-.1-19.9-.3-30.7,1.3-20.7,3.2-35.4,12.1-39.5,14.6-5.4,3.4-16.5,11.1-26.6,24.6-9.1,12.2-20.4,27.2-15.7,41.3,2.5,7.4,9.6,11.8,23.9,20.6,12.6,7.8,24,14.8,40.9,17.3,4.5.7,20.6,2.6,38.9-3.3,33-10.8,48.3-39.5,62-65.2,4.6-8.6,21.7-40.8,12.4-49.8-1.4,0-2.8-.6-3.8-1.6h0v.2h0Z"/>
    </g>
    <g>
      <path class="st1" d="M1355.5,253.1c-1.5.4-3,.7-4.7.8-1.5,0-2.6-.4-3.5-1.2h-215c10.5,26.7,25.2,44.5,34.8,54.6,13.8,14.4,31.6,33,61.3,39.3,26.9,5.7,48.8-1.7,57.2-4.7,32.8-11.5,50-34.8,56.6-43.9,12.6-17.6,18-34.6,20.4-45.1-2.4,0-4.8,0-7.2.2h0Z"/>
      <path class="st6" d="M1355.5,253.1c-1.5.4-3,.7-4.7.8h-.3c-.7,2-.9,4-1,5-1.2,10.5-6.1,19.3-15.9,36.8-8.2,14.7-19.6,23.2-25.9,28-16.1,12.1-31.3,16.3-35,17.3-4.9,1.3-16.3,3.9-30.9,3.1-28.8-1.5-48.8-15-55.9-20-15-10.4-23.5-21.7-29.5-29.7-12.2-16.4-18.8-32.1-22.4-43.2h-2.3c-2.8.9-5.6,1.1-8.6.4,4.9,13.7,13,31.3,26.9,49,6.1,7.8,15.9,20.2,32.7,32,11,7.7,29.5,20.3,56.3,22.6,4.7.4,18.5,1.3,35.4-3.1,17.9-4.6,29.7-12.7,36.3-17.3,3.8-2.7,18.3-13.1,31.3-31.5,4.7-6.6,8.7-15.4,16.8-32.8,4.1-8.8,6.3-14.2,6.2-17.7-3.2.2-6.4,0-9.6.4h0Z"/>
    </g>
    <g>
      <path class="st56" d="M793.8,337.6c-1.1,2-1.8,3.9-2.1,4.8-2.8,8.5-3.4,27.3-3.4,27.3-.3,9.5.3,5.6,0,11.6-.2,5.3-.6,7,.7,8.3,1.4,1.5,3.2.8,11.2.6,7.2-.1,8.3.4,9.7-.8,1.9-1.7,1.3-4.5.7-12-.3-3.4.7,7.8-.7-15.5-.2-3.8-.6-9.8-1.8-17.5-1-6.8-1.7-9-3.8-10.2-2.4-1.5-6.4-1.4-8.5.4-.7.6-1.1,1.4-2,3h0Z"/>
      <path class="st56" d="M794,317.3h10.3l.2,12-10.5.2v-12.3h0Z"/>
      <ellipse class="st56" cx="799.4" cy="333.3" rx="7.7" ry="7.5"/>
      <path class="st55" d="M795,253.4v63.6l8.5,1.2.2-66.1-8.7,1.2h0Z"/>
    </g>
    <g>
      <path class="st1" d="M817.9,252.3c-4.2.6-8.5.1-12.9.3-.8,0-1.5,0-2.1-.3h-13.3c-1.2.3-2.5.3-3.8,0h-197.8c10.5,26.7,25.2,44.5,34.8,54.6,13.8,14.4,31.5,33,61.3,39.3,26.9,5.7,48.8-1.7,57.2-4.7,32.8-11.5,50-34.8,56.6-43.9,12.7-17.7,18-34.8,20.5-45.3h-.6,0Z"/>
      <path class="st6" d="M820.9,251.6c-4.6,1.4-9.4.9-14.2.9-1,2.3-1.3,4.8-1.4,6-1.2,10.5-6.1,19.3-15.9,36.8-8.2,14.7-19.6,23.2-25.9,28-16.1,12.1-31.3,16.3-35,17.3-4.9,1.3-16.3,3.9-30.9,3.1-28.8-1.5-48.8-15-55.9-20-15-10.4-23.5-21.7-29.5-29.7-11.9-16-18.5-31.5-22.2-42.6-3.8,0-7.5-.5-11.3-.9,4.9,13.8,13,31.6,27.1,49.7,6.1,7.8,15.9,20.2,32.7,32,11,7.7,29.5,20.3,56.3,22.6,4.7.4,18.5,1.3,35.4-3.1,17.9-4.6,29.7-12.7,36.3-17.3,3.8-2.7,18.3-13.1,31.3-31.5,4.7-6.6,8.7-15.4,16.8-32.8,4.3-9.4,6.6-15,6.1-18.4h.2Z"/>
    </g>
    <g>
      <path class="st56" d="M1135.6,336.5c-1.1,2-1.8,3.9-2.1,4.8-2.8,8.5-3.4,27.3-3.4,27.3-.3,9.5.3,5.6,0,11.6-.2,5.3-.6,7,.7,8.3,1.4,1.5,3.2.8,11.2.6,7.2-.1,8.3.4,9.7-.8,1.9-1.7,1.3-4.5.7-12-.3-3.4.7,7.8-.7-15.5-.2-3.8-.6-9.8-1.8-17.5-1-6.8-1.7-9-3.8-10.2-2.4-1.5-6.4-1.4-8.5.4-.7.6-1.1,1.4-2,3h0Z"/>
      <path class="st56" d="M1135.8,316.1h10.3l.2,12-10.5.2v-12.3h0Z"/>
      <ellipse class="st56" cx="1141.2" cy="332.1" rx="7.7" ry="7.5"/>
      <path class="st55" d="M1136.8,252.2v63.6l8.4,1.2.2-66.1-8.7,1.2h0Z"/>
    </g>
    <g>
      <path class="st1" d="M1139.8,249.9l-343.5-1.3c-.5.4-1.2.7-2,.9-2.4.6-4.8.8-7.2.9,2.7,2.9,6.3,6.8,10.6,11.5,25,27.3,27.2,30.6,35.4,37.3,8.6,7,15.9,11.3,27.3,18,3.8,2.2,16.8,9.9,29.3,15.3,26.9,11.7,51.8,13.1,68.2,14,15.5.8,39.8,1.8,69.5-6.7,7.5-2.1,28.8-8.7,52.5-24,2.7-1.7,12.7-8.3,24.5-18.6,11.3-9.9,26.5-25.2,40.9-47.2h-5.6,0Z"/>
      <path class="st36" d="M1147.1,249.9c-1.8,0-3.8-.4-5.6,0-.9.1-1.7.1-2.4,0-1,1.6-2,3.6-3.7,6.1-.8,1.1-1.5,2.1-7.2,8.3-19.3,21.2-28.9,31.7-36.1,37.6-13.1,10.7-24.9,17-31.7,20.6-6.1,3.2-14.3,7.5-25.9,11.3-2.8.9-8.6,2.7-18.1,4.7-23.3,4.8-43.3,5.1-54.2,5-9.9-.1-21.3-.3-36.1-3-31.2-5.6-53-17.9-65.8-25.3-6.9-4-18.2-10.6-29-20.3-3.6-3.2-9.5-9-14.7-14.3-4.4-4.5-7.4-7.8-8.2-8.6-6.8-7.5-10.2-11.2-12.3-14.3-2.1-3.1-3.3-5.6-4.4-7.6-3.3.5-6.5.5-9.8.4,4.9,8.2,11.4,17.8,20,27.8,0,0,10,11.7,21.8,22,45.2,39.3,102.2,50.2,102.2,50.2,51.4,9.9,92.2-1.8,104.3-5.7,28.9-9.2,45.2-19.1,65.8-34.9,23.4-18,37-36,40.9-41.3,5.1-6.9,9-13.3,12.1-18.6h-2.1.2,0Z"/>
    </g>
  </g>
  <g id="escaleras">
    <polygon class="st65" points="316.6 806.9 -4.3 836 -5.1 854.4 320 816 316.6 806.9"/>
    <polygon class="st65" points="1601.6 805.9 1922.5 835 1923.4 853.4 1598.3 815 1601.6 805.9"/>
    <path class="st47" d="M317.5,809.9c-105.9,11.5-211.9,23-317.9,34.5v-70.6c109-.7,218-1.4,327-2.1-3.1,12.7-6.1,25.5-9.2,38.2h.1Z"/>
    <path class="st47" d="M1602.2,809.9c105.9,11.5,211.9,23,317.8,34.5v-70.6c-109-.7-218-1.4-327-2.1,3.1,12.7,6.1,25.5,9.2,38.2h0Z"/>
    <g>
      <g>
        <g>
          <g>
            <path class="st0" d="M358.7,326.5c10,421.9-2.9,478.2-11.8,479.2-1.6.2-7.3-.9-18-.4-14.9.7-25.2,3.7-28.4-1.3-1.5-2.4-.2-4.7-2.4-6.7-2.5-2.3-5.6-.7-10.1-1.6,0,0-5.6-1.1-10.6-6.9-6.9-8,.4-25.6,5.4-41.1,2.3-7.2,5.3-22.7,11.4-53.6,7.2-36.7,10.7-55.1,6.1-73-4.3-16.9-10.5-18.5-23.6-41.8-12.2-21.7-17.6-40.6-28.4-78.5-8.4-29.4-16.4-57.5-21.1-96.3-3-25.1-5.3-59.8-2-101.2l133.5,23.3h0Z"/>
            <path class="st74" d="M340.1,322.4c-1.8,42-2,75.9-2,97.8,0,49.5,2.4,98.8,7,197.5,2.5,53.6,3.8,80.4,4,81.8,5.8,34.2,17,67.6,4,76.8-3.4,2.4-8.2,3-16,4-10.6,1.3-20.6,2.6-24.9-2-6.4-6.8,6.1-19.8,11-47.9,2.4-13.6-.2-13.1,1-49.9s1.3-21.9,2-36.9c.1-2.9,1.7-40.7-1-70.8-2.6-28.5-7.4-31-18-76.8-5.3-23.1-15.9-74.9-18-138.7-.6-19-.3-34.6,0-44.9,17,3.3,33.9,6.6,50.9,10h0Z"/>
          </g>
          <path class="st74" d="M282.8,314.8c-13.6,44.5-15.1,80.9-14.2,104.6.5,11.9,3.7,97.7,40.8,159.6,4.1,6.8,13.9,22.3,18.2,45.2,2.3,12.5,1.3,18.5-1.3,51.4-1.9,23.6-6.9,50.9-16.9,105.5-.7,3.8-2.3,12.1-8.4,15.1-4.1,2-8.7.8-13.7-.4-5.2-1.3-12.4-3.2-15.5-8-4.7-7.3,1.7-18.7,5.8-27,0,0,2.5-5.1,17.7-55.4.6-1.9,13.8-47.4-.4-94.9-6.7-22.5-12.1-20.4-29.3-54.5-18.5-36.8-26.1-67-35.5-103.8-9.8-38.6-15.9-62.7-16-96.7,0-21.3,2.2-38.9,4.3-51.1,21.5,3.4,42.9,6.9,64.4,10.3h0Z"/>
        </g>
        <path class="st41" d="M359.1,767.7c-6.4-3-12.7,7.2-28.6,6.6-4.3-.2-9.4-2-19.5-5.5-22.4-8-25.7-12-30.9-9.9-9.1,3.7-13.3,21.9-6.9,29.8,3.7,4.5,8.5,2.8,18.3,8.8,7,4.3,8.8,7.9,12.6,11,12.8,10.7,42.3,11.9,54.9-3.3,10.2-12.3,8-33.7,0-37.5h.1Z"/>
        <g>
          <path class="st55" d="M355,690.5c-1,2.3-1.6,4.3-1.9,5.3-2.2,9.2-1.1,29.2-1.1,29.2.6,10,.8,5.9,1.1,12.3.3,5.6,0,7.4,1.5,8.7,1.7,1.4,3.6.5,12.3-.4,7.9-.8,9.2-.4,10.5-1.8,2-2,1-4.9-.4-12.8-.6-3.6,1.5,8.2-2.3-16.3-.6-4-1.6-10.3-3.6-18.3-1.7-7.1-2.7-9.3-5.1-10.5-2.8-1.3-7.1-.9-9.3,1.2-.7.7-1.1,1.6-1.9,3.4h.2,0Z"/>
          <path class="st55" d="M353.3,669c3.8-.3,7.5-.6,11.3-1l1.4,12.7-11.5,1.2-1.2-13h0Z"/>
          <ellipse class="st55" cx="360.2" cy="685.7" rx="8.4" ry="7.9" transform="translate(-33.1 18.4) rotate(-2.8)"/>
          <path class="st55" d="M353.3,657.3c.4,4.1.7,8.2,1.1,12.3l9.3-.5-.9-12.8-9.5,1h0Z"/>
          <path class="st55" d="M286.8,606.5c1.5-1,9.5,8.9,21,19.8,1.1,1,7.7,7.3,17.2,14.5,4.7,3.5,8.8,6.3,14.4,8.5,5.2,2,8.8,3.4,13.4,2.7,5-.8,8.7-3.8,10.1-2.5.3.3.4,1.5.6,4,.1,1.7.1,2.1,0,2.6-.3,1.1-1,2.2-1.8,2.8-1.1.8-2.3.8-6.5.3-8.4-1-11.6-2.1-13.8-3-.2,0-.5-.2-.6-.3-7-3-12.8-6.4-18.3-10.1,0,0-11.4-7.5-22.6-18-6.7-6.2-4.8-5.7-8-8.1-1.9-1.4-4.2-2.9-4.8-5.5,0-.4-.1-1.4-.2-3.3-.1-2.8-.2-4.2,0-4.3h-.1Z"/>
          <path class="st55" d="M285.8,600.9c1.4-1.1,10.6,7.8,23.4,17.5,1.2.9,8.6,6.5,19,12.5,5.1,3,9.5,5.3,15.5,7,5.3,1.5,9.2,2.5,13.8,1.2,4.2-1.2,6.7-4.1,8.4-3,1.3.8,1.1,3,1.1,4s-.2,3-1.9,4.4c-.4.3-1.3,1-4.4,1.4-1.4.2-6.3.7-14.2-1.6-.3,0-.5,0-.6-.2-7.3-2.2-13.6-5-19.6-8.1,0,0-12.3-6.3-24.8-15.5-7.5-5.5-5.5-5.2-9-7.2-2-1.2-4.6-2.4-5.5-5-.1-.4-.3-1.4-.6-3.2-.4-2.8-.6-4.1-.5-4.3h0Z"/>
        </g>
      </g>
      <g>
        <g>
          <g>
            <path class="st0" d="M-20.5,326.6c-10,421.9,2.9,478.2,11.8,479.2,1.6.2,7.3-.9,18-.4,14.9.7,25.2,3.7,28.4-1.3,1.5-2.4.2-4.7,2.4-6.7,2.5-2.3,5.6-.7,10.1-1.6,0,0,5.6-1.1,10.6-6.9,6.9-8-.4-25.6-5.4-41.1-2.3-7.2-5.3-22.7-11.4-53.6-7.2-36.7-10.7-55.1-6.1-73,4.3-16.9,10.5-18.5,23.6-41.8,12.2-21.7,17.6-40.6,28.4-78.5,8.4-29.4,16.4-57.5,21.1-96.3,3-25.1,5.3-59.8,2-101.2l-133.5,23.3h0Z"/>
            <path class="st74" d="M-1.8,322.5c1.8,42,2,75.9,2,97.7,0,49.5-2.4,98.8-7,197.5-2.5,53.6-3.8,80.4-4,81.8-5.8,34.2-17,67.6-4,76.8,3.4,2.4,8.2,3,16,4,10.6,1.3,20.6,2.6,24.9-2,6.4-6.8-6.1-19.8-11-47.9-2.3-13.6.2-13.1-1-49.9-.6-18.4-1.3-21.9-2-36.9-.1-2.9-1.7-40.7,1-70.8,2.6-28.5,7.4-31,18-76.8,5.3-23.1,15.9-74.9,18-138.7.6-19,.3-34.6,0-44.9-17,3.3-33.9,6.6-50.9,10h0Z"/>
          </g>
          <path class="st74" d="M55.5,314.8c13.6,44.5,15.1,80.9,14.2,104.6-.4,11.9-3.7,97.7-40.8,159.6-4.1,6.8-13.9,22.3-18.2,45.2-2.3,12.5-1.3,18.5,1.3,51.4,1.9,23.6,6.9,50.9,16.9,105.5.7,3.8,2.3,12.1,8.4,15.1,4.1,2,8.7.8,13.7-.4,5.2-1.3,12.4-3.2,15.5-8,4.7-7.3-1.7-18.7-5.8-27,0,0-2.5-5.1-17.7-55.4-.6-1.9-13.8-47.4.4-94.9,6.7-22.5,12.1-20.4,29.3-54.5,18.5-36.8,26.2-67,35.5-103.8,9.8-38.6,15.9-62.7,16-96.7,0-21.3-2.2-38.9-4.3-51.1-21.5,3.4-42.9,6.9-64.4,10.3h0Z"/>
        </g>
        <path class="st41" d="M-20.9,767.8c6.4-3,12.7,7.2,28.6,6.6,4.3-.2,9.4-2,19.5-5.5,22.4-8,25.7-12,30.9-9.9,9.1,3.7,13.3,21.9,6.9,29.8-3.7,4.5-8.5,2.8-18.3,8.8-7,4.3-8.8,7.9-12.6,11-12.8,10.7-42.3,11.9-54.9-3.3-10.2-12.3-8-33.7,0-37.5h0Z"/>
        <g>
          <path class="st55" d="M51.4,606.5c-1.5-1-9.5,8.9-21,19.8-1.1,1-7.7,7.3-17.2,14.5-4.7,3.5-8.8,6.3-14.4,8.5-5.2,2-8.8,3.4-13.4,2.7-5-.8-8.7-3.8-10.1-2.5-.3.3-.4,1.5-.6,4-.1,1.7-.1,2.1,0,2.6.3,1.1,1,2.2,1.8,2.8,1.1.8,2.3.8,6.5.3,8.4-1,11.6-2.1,13.8-3,.2,0,.5-.2.6-.3,6.9-3,12.8-6.4,18.3-10.1,0,0,11.4-7.5,22.6-18,6.7-6.2,4.8-5.7,8-8.1,1.8-1.4,4.2-2.9,4.8-5.5s0-1.4.2-3.3c0-2.8.2-4.2,0-4.3h.1Z"/>
          <path class="st55" d="M52.4,601c-1.4-1.1-10.6,7.8-23.4,17.5-1.2.9-8.6,6.5-19,12.5-5.1,3-9.5,5.3-15.5,7-5.3,1.5-9.2,2.5-13.7,1.2-4.2-1.2-6.7-4.1-8.4-3-1.3.8-1.1,3-1.1,4s.2,3,1.9,4.4c.4.3,1.3,1,4.4,1.4,1.4.2,6.3.7,14.2-1.6.3,0,.5,0,.7-.2,7.3-2.2,13.6-5,19.6-8.1,0,0,12.3-6.3,24.8-15.5,7.5-5.5,5.5-5.2,9-7.2,2-1.2,4.6-2.4,5.5-5,0-.4.3-1.4.6-3.2.4-2.8.6-4.1.5-4.3h0Z"/>
        </g>
      </g>
      <g>
        <path class="st56" d="M275.7,395.3c1.1,2,1.8,3.9,2.1,4.8,2.8,8.5,3.4,27.3,3.4,27.3.3,9.5-.3,5.6,0,11.6.2,5.3.6,7-.7,8.3-1.4,1.5-3.2.8-11.2.6-7.2-.1-8.4.4-9.6-.8-1.9-1.7-1.3-4.5-.7-12,.3-3.4-.7,7.8.7-15.5.2-3.8.6-9.8,1.8-17.5,1-6.8,1.7-9,3.8-10.2,2.4-1.5,6.4-1.4,8.5.4.7.6,1.1,1.4,2,3h0Z"/>
        <path class="st56" d="M275.5,375h-10.3l-.2,12,10.5.2v-12.3h0Z"/>
        <ellipse class="st56" cx="270.1" cy="390.9" rx="7.6" ry="7.5"/>
        <path class="st55" d="M274.6,311v63.6l-8.5,1.2-.2-66.1,8.7,1.2h0Z"/>
      </g>
      <g>
        <path class="st56" d="M124.1,371.4c1.1,2,1.8,3.9,2.1,4.8,2.8,8.5,3.4,27.3,3.4,27.3.3,9.5-.3,5.6,0,11.6.2,5.3.6,7-.7,8.3-1.4,1.5-3.2.8-11.2.6-7.2-.1-8.3.4-9.7-.8-1.9-1.7-1.3-4.5-.7-12,.3-3.4-.7,7.8.7-15.5.2-3.8.6-9.8,1.8-17.5,1-6.8,1.7-9,3.8-10.2,2.4-1.5,6.4-1.4,8.5.4.7.6,1.1,1.4,2,3h0Z"/>
        <path class="st56" d="M123.8,351h-10.3l-.2,12,10.5.2v-12.3h0Z"/>
        <ellipse class="st56" cx="118.5" cy="367" rx="7.7" ry="7.5"/>
        <path class="st55" d="M122.9,287.1v63.6l-8.4,1.2-.2-66.1,8.7,1.2h0Z"/>
      </g>
      <g>
        <path class="st12" d="M361.8,323.8l-.4,69.2c-1.2,3.2-5.8,14.5-18.2,21.3-1.3.7-16.9,8.9-32.8,2.2-7.9-3.3-12-8.7-19.1-18.2-6.1-8.3-14.8-20.2-19.5-38.6-5.6-21.8-2.3-40.1,0-49.2l90,13.3h0Z"/>
        <path class="st6" d="M361.5,362.9c0,2.1,0,5.1-.3,8.6-.8,11.4-1.2,17.5-4.3,23.9-.6,1.2-3.4,6.9-9.6,12-2.6,2.1-10.5,8.4-22.3,8.6-9.3.2-16-3.5-18.6-5-7.8-4.4-11.9-10.4-16.6-17.6-3.2-4.8-7.3-12.1-10.6-22-8.2-24.5-6.6-51.3-5.6-61.9l-5.6-1.3c-.7,5.1-1.5,12.7-1.7,22-.2,13.3-.3,28,6,44.9,4.1,11.1,9.4,18.6,14.3,25.6,6.2,8.9,9.9,14,17,18.3,3,1.8,11,6.5,22,6,12.9-.6,21.4-7.8,24.6-10.6,6-5.2,9.3-11,11-14.6.4-6.1.9-12.2,1.3-18.3-.2-6.2-.4-12.4-.7-18.6h-.3,0Z"/>
      </g>
      <g>
        <path class="st12" d="M-9.9,273.3c-.8,30-1.5,60-2.2,90,1.6,3.3,7.7,14.8,24.8,22.1,1.8.8,23.4,9.6,45.9,3.6,11.2-3,17.1-8.2,27.3-17.4,8.7-7.9,21.5-19.4,28.5-37.7,8.3-21.6,3.9-40.1.8-49.2-41.7-3.8-83.3-7.6-125-11.4h-.1Z"/>
        <path class="st6" d="M-11.6,333.3c0,2.1,0,5.1.2,8.7.7,11.4,1.1,17.5,5.3,24.1.8,1.2,4.6,7,13.1,12.4,3.5,2.2,14.5,8.9,30.9,9.6,13,.6,22.6-2.8,26.3-4.2,11.1-4.1,17-9.9,23.8-16.9,4.6-4.7,10.6-11.8,15.6-21.5,12.3-24.2,10.9-51,9.8-61.6l8-1.1c.8,5.2,1.8,12.8,1.7,22-.2,13.3-.4,28-9.8,44.6-6.2,10.9-13.7,18.1-20.8,25-9,8.7-14.3,13.6-24.3,17.5-4.2,1.6-15.6,6-30.9,5-18-1.1-29.7-8.7-34.2-11.7-8.2-5.5-12.6-11.4-14.9-15.1-.4-6.1-.9-12.2-1.3-18.3.5-6.2,1-12.4,1.5-18.6h0Z"/>
      </g>
      <g>
        <path class="st12" d="M269.2,305.1c-6.2,20.5-14.8,35.5-21.3,45.2-9.2,13.8-15.1,22.5-26.9,28.3-19.9,9.7-40.2,2.8-44.6,1.3-17.4-5.9-26.9-17.5-35.9-28.6-5.7-7-22.1-27.6-23.9-57.2-.3-4.5-.2-8.3,0-11,50.9,7.3,101.8,14.6,152.6,22h0Z"/>
        <path class="st18" d="M274.9,307.4c-.9-1.5-3.5-1.8-5.6-1.7-.1.3-3.5,8-3.7,8.3-11.2,25.4-11.6,26.4-12.6,28.3-2.2,4-8.1,14.6-19.3,24.3-6.3,5.4-15,12.9-28.3,15.3-18.4,3.4-33.5-5.4-40.2-9.3-13.8-8-21.2-18.5-27.9-27.9-8.5-12-13.4-23.3-16.3-31.3l-3.3-30.3-7.7-1c-.3,2.1-.6,5.1-.7,8.6,0,3.2,0,12.6,4,25.6,1.3,4.2,5.8,17.7,17.6,34.2,10.5,14.6,17.6,24.6,31.6,31.9,4.5,2.4,22.5,11.4,44.6,6.6,15.8-3.4,25.9-12.1,31.9-17.3,11.6-9.9,17.8-20.7,20-24.6,4.8-8.6,8.6-18.5,9-19.6,2.5-6.8,1.9-6.9,4-11.3,2.1-4.5,4.1-7.1,3-9h0v.2h0Z"/>
      </g>
      <g>
        <g>
          <g>
            <path class="st0" d="M1579,319.1c-10,421.9,2.9,478.2,11.8,479.2,1.6.2,7.3-.9,18-.4,14.9.7,25.2,3.7,28.4-1.3,1.5-2.4.2-4.7,2.4-6.7,2.5-2.3,5.6-.7,10.1-1.6,0,0,5.6-1.1,10.6-6.9,6.9-8-.4-25.6-5.4-41.1-2.3-7.2-5.3-22.7-11.4-53.6-7.2-36.7-10.7-55.1-6.1-73,4.3-16.9,10.5-18.5,23.6-41.8,12.2-21.7,17.6-40.6,28.4-78.5,8.4-29.4,16.4-57.5,21.1-96.3,3-25.1,5.3-59.8,2-101.2l-133.5,23.3h0Z"/>
            <path class="st74" d="M1597.7,315c1.8,42,2,75.9,2,97.8,0,49.5-2.4,98.8-7,197.5-2.5,53.6-3.8,80.4-4,81.8-5.8,34.2-17,67.6-4,76.8,3.4,2.4,8.2,3,16,4,10.6,1.3,20.6,2.6,24.9-2,6.4-6.8-6.1-19.8-11-47.9-2.3-13.6.2-13.1-1-49.9s-1.3-21.9-2-36.9c0-2.9-1.7-40.7,1-70.8,2.6-28.5,7.4-31,18-76.8,5.3-23.1,15.9-74.9,18-138.7.6-19,.3-34.6,0-44.9-17,3.3-33.9,6.6-50.9,10h0Z"/>
          </g>
          <path class="st74" d="M1655,307.4c13.6,44.5,15.1,80.9,14.2,104.6-.4,11.9-3.7,97.7-40.8,159.6-4.1,6.8-13.9,22.3-18.2,45.2-2.3,12.5-1.3,18.5,1.3,51.4,1.9,23.6,6.9,50.9,16.8,105.5.7,3.8,2.3,12.1,8.4,15.1,4.1,2,8.7.8,13.7-.4,5.2-1.3,12.4-3.2,15.5-8,4.7-7.3-1.7-18.7-5.8-27,0,0-2.5-5.1-17.7-55.4-.6-1.9-13.8-47.4.4-94.9,6.7-22.5,12.1-20.4,29.3-54.5,18.5-36.8,26.2-67,35.5-103.8,9.8-38.6,15.9-62.7,16-96.7,0-21.3-2.2-38.9-4.3-51.1-21.5,3.4-42.9,6.9-64.4,10.3h0Z"/>
        </g>
        <path class="st41" d="M1578.6,760.3c6.4-3,12.7,7.2,28.6,6.6,4.3-.2,9.4-2,19.4-5.5,22.4-8,25.7-12,30.9-9.9,9.1,3.7,13.3,21.9,6.9,29.8-3.7,4.5-8.6,2.8-18.3,8.8-7,4.3-8.8,7.9-12.6,11-12.8,10.7-42.3,11.9-54.9-3.3-10.2-12.3-8-33.7,0-37.5h0Z"/>
        <g>
          <path class="st55" d="M1582.8,683.1c1,2.3,1.6,4.3,1.8,5.3,2.2,9.2,1.1,29.2,1.1,29.2-.6,10-.8,5.9-1.1,12.3-.3,5.6,0,7.4-1.5,8.7-1.7,1.4-3.6.5-12.3-.4-7.9-.8-9.2-.4-10.5-1.8-2-2-1-4.9.4-12.8.6-3.6-1.5,8.2,2.3-16.3.6-4,1.6-10.3,3.6-18.3,1.7-7.1,2.7-9.3,5.1-10.5,2.8-1.3,7.1-.9,9.3,1.2.7.7,1.1,1.6,1.9,3.4h-.1Z"/>
          <path class="st55" d="M1584.5,661.6l-11.3-1-1.4,12.7,11.5,1.2,1.2-13h0Z"/>
          <ellipse class="st55" cx="1575.9" cy="677.4" rx="7.9" ry="8.4" transform="translate(822.3 2218.3) rotate(-87.2)"/>
          <path class="st55" d="M1584.5,650c-.4,4.1-.7,8.2-1.1,12.3l-9.3-.5.9-12.8,9.5,1h0Z"/>
          <path class="st55" d="M1651,599.1c-1.5-1-9.5,8.9-21,19.8-1.1,1-7.7,7.3-17.2,14.5-4.7,3.5-8.8,6.3-14.4,8.5-5.2,2-8.8,3.4-13.4,2.7-5-.8-8.7-3.8-10.1-2.5-.3.3-.4,1.5-.6,4-.2,1.7,0,2.1,0,2.6.3,1.1,1,2.2,1.8,2.8,1.1.8,2.3.8,6.5.3,8.4-1,11.6-2.1,13.8-3,.2,0,.5-.2.6-.3,6.9-3,12.8-6.4,18.3-10.1,0,0,11.3-7.5,22.6-18,6.7-6.2,4.8-5.7,8.1-8.1,1.8-1.4,4.2-2.9,4.8-5.5,0-.4,0-1.4.2-3.3,0-2.8.2-4.2,0-4.3h0Z"/>
          <path class="st55" d="M1651.9,593.6c-1.4-1.1-10.6,7.8-23.4,17.5-1.2.9-8.6,6.5-19,12.5-5.1,3-9.5,5.3-15.5,7-5.3,1.5-9.2,2.5-13.8,1.2-4.2-1.2-6.7-4.1-8.4-3-1.3.8-1.1,3-1.1,4s.2,3,1.9,4.4c.3.3,1.3,1,4.3,1.4,1.4.2,6.3.7,14.2-1.6.3,0,.5,0,.7-.2,7.3-2.2,13.6-5,19.6-8.1,0,0,12.3-6.3,24.8-15.5,7.4-5.5,5.5-5.2,9-7.2,2-1.2,4.6-2.4,5.4-5,0-.4.3-1.4.6-3.2.4-2.8.6-4.1.5-4.3h.2Z"/>
        </g>
      </g>
      <g>
        <g>
          <g>
            <path class="st0" d="M1958.3,319.2c10,421.9-2.9,478.2-11.8,479.2-1.6.2-7.3-.9-18-.4-14.9.7-25.2,3.7-28.4-1.3-1.5-2.4-.2-4.7-2.4-6.7-2.5-2.3-5.6-.7-10.1-1.6,0,0-5.6-1.1-10.6-6.9-6.9-8,.4-25.6,5.4-41.1,2.3-7.2,5.3-22.7,11.4-53.6,7.2-36.7,10.7-55.1,6.1-73-4.3-16.9-10.5-18.5-23.6-41.8-12.2-21.7-17.6-40.6-28.4-78.5-8.4-29.4-16.4-57.5-21.1-96.3-3-25.1-5.3-59.8-2-101.2l133.5,23.3h0Z"/>
            <path class="st74" d="M1939.6,315.1c-1.8,42-2,75.9-2,97.8,0,49.5,2.4,98.8,7,197.5,2.5,53.6,3.8,80.4,4,81.8,5.8,34.2,17,67.6,4,76.8-3.4,2.4-8.2,3-16,4-10.6,1.3-20.6,2.6-24.9-2-6.4-6.8,6.1-19.8,11-47.9,2.3-13.6-.2-13.1,1-49.9s1.3-21.9,2-36.9c0-2.9,1.7-40.7-1-70.8-2.6-28.5-7.4-31-18-76.8-5.3-23.1-15.9-74.9-18-138.7-.6-19-.3-34.6,0-44.9,17,3.3,33.9,6.6,50.9,10h0Z"/>
          </g>
          <path class="st74" d="M1882.3,307.5c-13.6,44.5-15.1,80.9-14.2,104.6.4,11.9,3.7,97.7,40.8,159.6,4.1,6.8,13.9,22.3,18.2,45.2,2.3,12.5,1.3,18.5-1.3,51.4-1.9,23.6-6.9,50.9-16.8,105.5-.7,3.8-2.3,12.1-8.4,15.1-4.1,2-8.7.8-13.7-.4-5.2-1.3-12.4-3.2-15.5-8-4.7-7.3,1.7-18.7,5.8-27,0,0,2.5-5.1,17.7-55.4.6-1.9,13.8-47.4-.4-94.9-6.7-22.5-12.1-20.4-29.3-54.5-18.5-36.8-26.2-67-35.5-103.8-9.8-38.6-15.9-62.7-16-96.7,0-21.3,2.2-38.9,4.3-51.1,21.5,3.4,42.9,6.9,64.4,10.3h0Z"/>
        </g>
        <path class="st41" d="M1958.7,760.4c-6.4-3-12.7,7.2-28.6,6.6-4.3-.2-9.4-2-19.4-5.5-22.4-8-25.7-12-30.9-9.9-9.1,3.7-13.3,21.9-6.9,29.8,3.7,4.5,8.6,2.8,18.3,8.8,7,4.3,8.8,7.9,12.6,11,12.8,10.7,42.3,11.9,54.9-3.3,10.2-12.3,8-33.7,0-37.5h0Z"/>
        <g>
          <path class="st55" d="M1886.4,599.2c1.5-1,9.5,8.9,21,19.8,1.1,1,7.7,7.3,17.2,14.5,4.7,3.5,8.8,6.3,14.4,8.5,5.2,2,8.8,3.4,13.4,2.7,5-.8,8.7-3.8,10.1-2.5.3.3.4,1.5.6,4,.2,1.7,0,2.1,0,2.6-.3,1.1-1,2.2-1.8,2.8-1.1.8-2.3.8-6.5.3-8.4-1-11.6-2.1-13.8-3-.2,0-.5-.2-.6-.3-6.9-3-12.8-6.4-18.3-10.1,0,0-11.3-7.5-22.6-18-6.7-6.2-4.8-5.7-8.1-8.1-1.8-1.4-4.2-2.9-4.8-5.5,0-.4,0-1.4-.2-3.3,0-2.8-.2-4.2,0-4.3h0Z"/>
          <path class="st55" d="M1885.4,593.7c1.4-1.1,10.6,7.8,23.4,17.5,1.2.9,8.6,6.5,19,12.5,5.1,3,9.5,5.3,15.5,7,5.3,1.5,9.2,2.5,13.8,1.2,4.2-1.2,6.7-4.1,8.4-3,1.3.8,1.1,3,1.1,4s-.2,3-1.9,4.4c-.3.3-1.3,1-4.3,1.4-1.4.2-6.3.7-14.2-1.6-.3,0-.5,0-.7-.2-7.3-2.2-13.6-5-19.6-8.1,0,0-12.3-6.3-24.8-15.5-7.4-5.5-5.5-5.2-9-7.2-2-1.2-4.6-2.4-5.4-5,0-.4-.3-1.4-.6-3.2-.4-2.8-.6-4.1-.5-4.3h-.2Z"/>
        </g>
      </g>
      <g>
        <path class="st56" d="M1662.1,387.9c-1.1,2-1.8,3.9-2.1,4.8-2.8,8.5-3.4,27.3-3.4,27.3-.3,9.5.3,5.6,0,11.6-.2,5.3-.6,7,.7,8.3,1.4,1.5,3.2.8,11.2.6,7.2-.1,8.3.4,9.7-.8,1.9-1.7,1.3-4.5.7-12-.3-3.4.7,7.8-.7-15.5-.2-3.8-.6-9.8-1.8-17.5-1-6.8-1.7-9-3.8-10.2-2.4-1.5-6.4-1.4-8.5.4-.7.6-1.1,1.4-2,3h0Z"/>
        <path class="st56" d="M1662.3,367.6h10.3l.2,12-10.5.2v-12.3h0Z"/>
        <ellipse class="st56" cx="1667.7" cy="383.5" rx="7.7" ry="7.5"/>
        <path class="st55" d="M1663.2,303.6v63.6l8.4,1.2.2-66.1-8.7,1.2h0Z"/>
      </g>
      <g>
        <path class="st56" d="M1813.7,364c-1.1,2-1.8,3.9-2.1,4.8-2.8,8.5-3.4,27.3-3.4,27.3-.3,9.5.3,5.6,0,11.6-.2,5.3-.6,7,.7,8.3,1.4,1.5,3.2.8,11.2.6,7.2-.1,8.3.4,9.7-.8,1.9-1.7,1.3-4.5.7-12-.3-3.4.7,7.8-.7-15.5-.2-3.8-.6-9.8-1.8-17.5-1-6.8-1.7-9-3.8-10.2-2.4-1.5-6.4-1.4-8.5.4-.7.6-1.1,1.4-2,3h0Z"/>
        <path class="st56" d="M1813.9,343.6h10.3l.2,12-10.5.2v-12.3h0Z"/>
        <ellipse class="st56" cx="1819.3" cy="359.6" rx="7.7" ry="7.5"/>
        <path class="st55" d="M1814.8,279.7v63.6l8.4,1.2.2-66.1-8.7,1.2h0Z"/>
      </g>
      <g>
        <path class="st12" d="M1576,316.4l.4,69.2c1.2,3.2,5.8,14.5,18.2,21.3,1.3.7,16.9,8.9,32.8,2.2,7.9-3.3,12-8.7,19.1-18.2,6.1-8.3,14.8-20.2,19.5-38.6,5.6-21.8,2.3-40.1,0-49.2l-90,13.3h0Z"/>
        <path class="st6" d="M1576.3,355.5c0,2.1,0,5.1.3,8.6.8,11.4,1.2,17.5,4.3,23.9.6,1.2,3.4,6.9,9.6,12,2.6,2.1,10.5,8.4,22.3,8.6,9.3.2,16-3.5,18.6-5,7.8-4.4,11.9-10.4,16.6-17.6,3.2-4.8,7.3-12.1,10.6-22,8.2-24.5,6.6-51.3,5.7-61.9l5.7-1.3c.7,5.1,1.6,12.7,1.7,22,.2,13.3.3,28-6,44.9-4.2,11.1-9.4,18.6-14.3,25.6-6.2,8.9-9.9,14-17,18.3-2.9,1.8-11,6.5-21.9,6-12.9-.6-21.4-7.8-24.6-10.6-6-5.2-9.3-11-11-14.6-.4-6.1-.9-12.2-1.3-18.3.2-6.2.4-12.4.7-18.6h0Z"/>
      </g>
      <g>
        <path class="st12" d="M1930.2,266.5c.8,30,1.5,60,2.3,90-1.3,3.2-6.7,14.7-21.5,22-1.6.8-20.3,9.5-39.9,3.5-9.8-3-14.9-8.2-23.8-17.5-7.6-7.9-18.7-19.5-25-37.8-7.3-21.7-3.5-40.1-.8-49.2,36.2-3.6,72.5-7.3,108.7-10.9h0Z"/>
        <path class="st6" d="M1931.9,326.5v8.6c-.6,11.4-.9,17.5-4.5,24.1-.7,1.2-4,7-11.4,12.3-3.1,2.2-12.5,8.8-26.9,9.5-11.3.5-19.7-2.9-22.8-4.3-9.7-4.1-14.8-10-20.8-17-4-4.7-9.3-11.8-13.6-21.5-10.8-24.2-9.7-51-8.8-61.6l-6.9-1.1c-.7,5.1-1.5,12.8-1.3,22,.2,13.3.4,28,8.7,44.6,5.4,10.9,12,18.2,18.2,25.1,7.9,8.7,12.5,13.6,21.2,17.6,3.7,1.7,13.6,6.1,26.9,5.2,15.7-1,25.8-8.6,29.7-11.6,7.1-5.5,10.9-11.4,12.9-15,.3-6.1.7-12.2,1.1-18.3-.5-6.2-.9-12.4-1.4-18.6h-.3,0Z"/>
      </g>
      <g>
        <path class="st12" d="M1668.5,297.7c6.2,20.5,14.8,35.5,21.3,45.2,9.2,13.8,15.1,22.5,26.9,28.3,19.9,9.7,40.2,2.8,44.6,1.3,17.4-5.9,26.8-17.5,35.9-28.6,5.7-7,22.1-27.6,23.9-57.2.3-4.5.2-8.3,0-11-50.9,7.3-101.8,14.6-152.6,22h0Z"/>
        <path class="st18" d="M1662.9,300.1c.9-1.5,3.5-1.8,5.7-1.7,0,.3,3.5,8,3.7,8.3,11.2,25.4,11.6,26.4,12.6,28.3,2.2,4,8.1,14.6,19.3,24.3,6.3,5.4,15,12.9,28.3,15.3,18.4,3.4,33.5-5.4,40.2-9.3,13.8-8,21.2-18.5,27.9-27.9,8.5-12,13.4-23.3,16.3-31.3l3.3-30.3,7.7-1c.3,2.1.6,5.1.7,8.6,0,3.2,0,12.6-4,25.6-1.3,4.2-5.8,17.7-17.6,34.2-10.5,14.6-17.6,24.6-31.6,31.9-4.5,2.4-22.5,11.4-44.6,6.6-15.8-3.4-25.9-12.1-31.9-17.3-11.6-9.9-17.8-20.7-19.9-24.6-4.8-8.6-8.6-18.5-9-19.6-2.5-6.8-1.9-6.9-4-11.3-2.1-4.5-4.1-7.1-3-9h0v.2h0Z"/>
      </g>
    </g>
    <g>
      <path class="st33" d="M187.4,714.6c.6.6,3,3.4,3.1,7.6,0,3.9-2,6.5-2.6,7.2-21.3,6-42.5,12-63.8,18.1-6.6-1.9-13.4-4.1-20.5-6.8-14.2-5.2-26.8-11.1-37.9-17,7-4,15.3-8,24.8-11.8,10.3-4,19.9-6.8,28.3-8.7,13.2-.2,29.3.8,47.2,5,7.8,1.8,14.9,4,21.3,6.3h.1Z"/>
      <path class="st54" d="M188.1,713.9c-1.7,0-4.1.4-7.1.7-10,1.2-18.2,2.2-27.3,5.5-2.4.9-11.9,4.5-22.2,12.7-6.5,5.2-11.2,10.5-14.3,14.6,2.6.9,5.1,1.8,7.6,2.6,21.3-6.6,42.5-13.3,63.8-19.9.6-.8,2.6-3.6,2.6-7.9s-2.5-7.7-3.1-8.4h0Z"/>
      <path class="st58" d="M188.1,798.1c-5.3-13.4-8.4-19.9-8.4-19.9-4.2-18.3,1.1-33.5,3.6-39.5,3.2-9.1,2.8-12,1.6-12.7-1.1-.8-2.7.6-5.2,0-1.6-.4-3.1-1.5-5.2-4.6-5-7.3-6-15-6.5-18.9-.4-3.4-.4-5.6.1-7.9.6-2.8,1.8-4.8,2.6-6.2.1.5,1.3,4.5,5.1,5.9,1.8.7,3.4.5,4.2.3,4.9-1.7,7.5-7.3,5.6-12.1s-7.6-7.1-12.4-4.9l-46.7,12.4c-.7.2-4.5,1.2-8.2-1-4.9-3-4.9-8.9-4.9-9.1-1.7-12.7-3.5-25.5-5.2-38.2-1.8-7.9-4.8-17.3-9.6-26-2.6-4.8-5.2-8.3-8.9-8.9-2.7-.4-4,1-6.5,0-3.8-1.4-3.8-5.7-6.8-6.5-1.6-.5-4.1,0-8.3,4.3-1.4-1.1-3.9-2.6-7-2.4-5.1.4-8.4,5.4-9.8,7.5-8.7,13-23.9,60.6.3,120.2,2.2,5.3,4.1,9.5,5.2,11.8,3.9,18.8,2.4,33,.3,42.5-2.2,9.8-6.7,22-5.8,22.3.4,0,1.7-2.4,2.7-4.5.4-1,1.1-2.5,1.8-4.5,3.6-9.2,8.4-21.4,8.3-35.8,0-4.4-.6-10.9-3-18.7,1.8.8,3.7,1.5,5.5,2.3,17.1,2.6,34.2,5.2,51.3,7.8,7.2,35.5,3.8,51.1-1.3,58.5-1.2,1.7-7,9.5-4.9,12.1.9,1.1,2.8.9,4.9.7,2.3-.3,6.6-1.1,11.3-4.7.6-.5,1-1.3.9-2.1-.6-4-.7-9.9,1.8-16,5.8-14.4,24.2-26.1,35.3-19.9,7.3,4.1,8.8,14.5,9.1,19.5.1,1.6,1.4,2.9,3,3.1s3.7.2,5.9-.7c1.5-.6,2.7-1.3,3.6-2.1.2-.2.4-.4.6-.8.4-.9,0-2-.1-2.4h0v-.2h0ZM121.2,726.9c-3.9-5.8-3.8-13.5-1-18.9,3.1-6,9-8.2,20.2-12.4,5.6-2.1,10.5-3.3,16-4.6,5.7-1.4,10.6-2.2,14-2.8,0,0,.1,0,.1-.2.3-.5-.1-1.1-.2-1.2-2.4.5-4.7.9-7.1,1.4-.4.8-.8,2-1.3,3.4-.8,2.7-2.3,7.2-1,15,.9,5.2,2.4,12.2,5.2,20.2l-20.6,7.2c-9.6,3.3-19.7,0-24.5-7.2h.2ZM151.9,773.2c-10.5,1.8-16.8,8.3-18.6,10.5l-.3-32c12-3.8,23.9-7.6,35.9-11.4.2,11.7.4,23.3.6,34.9-2.8-1.1-9.4-3.4-17.6-2h0Z"/>
      <path class="st5" d="M111.1,751.8c-.7,4-1.4,10.5.3,18.3,1.8,8.1,5.4,14.1,8.2,17.9.8,1,0,2.5-1.2,2.6l-10.5,1c-1,0-1.8-.7-1.8-1.7.2-4.4,0-12.7-5.2-16.5-9.4-6.9-34.8,2.5-36.9,18.9,0,0-.4,8.3-.6,11.7,0,.9-.6,1.6-1.4,2-7.2,3.2-9.7,3-10.5,2-1.3-1.7,2-5.7,5.2-13.2,0,0,2.5-5.9,4.9-16.5,1.3-5.8,3-17.7-.7-34.9l7.9,1.4c-.2,10.1-.3,20.2-.4,30.3,1.4-1.7,7.2-7.9,17-9.5,10-1.6,17.4,2.8,19.3,3.9,0-6.1.2-12.2.3-18.3l5.9.7h.2Z"/>
      <path class="st54" d="M53.5,715.8c5.7,2.9,13.3,6.2,22.8,8.3,14,3.1,25.9,2.2,33.7,1l4.6,15.7c-6.8.5-15.4.4-25.2-1.2-14.7-2.5-26.2-7.8-33.7-12-.7-3.9-1.5-7.8-2.2-11.8h0Z"/>
      <path class="st54" d="M109.4,718.5s-13.9-73.1-12.8-75.5c-1-2.7-3.1-6.9-7.2-10.5-9.6-8.5-22.1-6.7-24.1-6.4-6.4,1-10.2,3.4-12.6,5.7-2.8,2.6-9.2,10.1-4.8,50.5,1.2,11,2.7,20.1,3.9,26.6,5.3,3.1,12.6,6.7,21.9,9,15.2,3.8,28.1,2.3,35.7.8h0v-.2h0Z"/>
      <path class="st9" d="M134.9,680.1l31.5-7.5c3.3-.8,6.7,1.3,7.5,4.6h0c.8,3.3-1.3,6.7-4.6,7.5l-31.5,7.5c-3.3.8-6.7-1.3-7.5-4.6h0c-.8-3.3,1.3-6.7,4.6-7.5Z"/>
      <path class="st54" d="M130.7,686.9c0,.2,0,.3.1.5.9,3.5,4.4,5.5,7.7,4.6,10.7-2.5,21.5-4.9,32.2-7.3.3,0,2.3-.8,3.3-2.9.9-2.1.2-4,0-4.3-5.3,2.3-11.9,4.7-19.6,6.5-9.1,2.1-17.1,2.8-23.6,3h0Z"/>
    </g>
    <g>
      <path class="st33" d="M1742.1,717c-.5.6-2.8,3.5-2.6,7.8.2,3.9,2.4,6.3,3.1,7,21.6,4.7,43.2,9.4,64.8,14.1,6.4-2.3,13.1-5,20-8,13.8-6.1,26.1-12.7,36.8-19.3-7.3-3.5-15.8-7.1-25.5-10.2-10.6-3.4-20.3-5.6-28.8-7-13.2.6-29.2,2.6-46.8,7.9-7.7,2.3-14.6,4.9-20.9,7.6h0Z"/>
      <path class="st54" d="M1741.4,716.3c1.7,0,4.2,0,7.2.3,10.1.6,18.3,1.1,27.6,3.9,2.5.7,12.2,3.8,22.9,11.3,6.8,4.8,11.8,9.8,15.2,13.7-2.5,1.1-5,2.1-7.4,3l-64.9-15.9c-.6-.7-2.8-3.5-3.1-7.7-.3-4.7,2-7.9,2.5-8.6h0Z"/>
      <path class="st58" d="M1746.6,800.3c4.4-13.7,7.2-20.4,7.2-20.4,3.1-18.5-3.1-33.3-6-39.2-3.8-8.9-3.5-11.8-2.4-12.6s2.8.4,5.2-.3c1.6-.5,3-1.7,4.9-4.9,4.5-7.6,5.1-15.3,5.3-19.3.2-3.4,0-5.6-.6-7.8-.8-2.7-2.1-4.7-3-6,0,.5-1,4.5-4.7,6.2-1.7.8-3.3.7-4.2.6-5-1.4-7.9-6.8-6.3-11.7s7.2-7.6,12.1-5.7l47.4,9.5c.7.2,4.5,1,8.1-1.5,4.7-3.2,4.3-9.2,4.3-9.4.9-12.8,1.9-25.6,2.9-38.5,1.3-8,3.7-17.5,8-26.5,2.3-5,4.7-8.6,8.4-9.5,2.7-.6,4,.7,6.5-.4,3.8-1.7,3.5-5.9,6.3-6.9,1.6-.6,4.1-.2,8.5,3.8,1.4-1.2,3.8-2.8,6.8-2.8,5.1,0,8.7,4.9,10.2,6.9,9.5,12.5,27.6,59,7.1,120-1.8,5.5-3.5,9.7-4.5,12-2.7,19-.4,33.1,2.3,42.4,2.8,9.7,8,21.6,7.2,21.9-.4.2-1.8-2.3-3-4.3-.5-1-1.2-2.5-2.1-4.3-4.2-9-9.8-20.9-10.5-35.2-.2-4.4,0-10.9,1.9-18.9-1.8.9-3.6,1.8-5.4,2.6-16.9,3.7-33.8,7.3-50.7,11-5,35.9-.7,51.2,4.9,58.3,1.2,1.6,7.6,9,5.6,11.8-.8,1.1-2.8,1.1-4.8,1-2.3,0-6.6-.7-11.6-4-.7-.5-1.1-1.2-1-2,.3-4.1,0-9.9-2.8-15.9-6.7-14-25.8-24.6-36.4-17.7-7,4.5-7.9,15-7.8,20,0,1.6-1.2,3-2.8,3.3-1.6.3-3.7.4-5.9-.3-1.6-.5-2.8-1.2-3.8-1.8-.2,0-.5-.4-.7-.7-.5-.9-.2-2,0-2.4h0v-.4h0ZM1808.9,725.1c3.5-6.1,3-13.7-.2-19-3.5-5.8-9.5-7.6-21-11.1-5.7-1.7-10.7-2.6-16.2-3.6-5.8-1-10.7-1.6-14.1-1.9h0c-.3-.4,0-1.1,0-1.2,2.4.3,4.8.6,7.2,1,.4.8,1,1.9,1.5,3.3,1,2.6,2.7,7,1.9,14.9-.5,5.2-1.6,12.3-4,20.5l21,5.9c9.8,2.7,19.6-1.1,24-8.7h-.1ZM1781.1,773.3c10.6,1.2,17.2,7.3,19.2,9.3l-1.7-32c-12.2-3.1-24.4-6.1-36.6-9.2.5,11.6,1,23.3,1.5,34.9,2.7-1.3,9.1-4,17.5-3h0Z"/>
      <path class="st5" d="M1820.5,749.4c1,3.9,2,10.4.8,18.3-1.3,8.2-4.5,14.4-7.1,18.4-.7,1.1,0,2.5,1.3,2.5l10.5.3c1,0,1.8-.8,1.7-1.8-.5-4.3-.7-12.7,4.2-16.8,8.9-7.5,34.9.4,38,16.6,0,0,.9,8.3,1.3,11.6,0,.9.7,1.6,1.5,1.9,7.4,2.8,9.8,2.4,10.6,1.4,1.2-1.7-2.3-5.5-6-12.8,0,0-2.9-5.7-5.9-16.2-1.6-5.8-4.1-17.5-1.5-34.9l-7.8,1.9c.8,10.1,1.5,20.1,2.3,30.2-1.6-1.6-7.6-7.5-17.5-8.4-10.1-1-17.2,3.8-19,5.1-.5-6.1-1-12.2-1.4-18.2l-5.8,1h-.2Z"/>
      <path class="st54" d="M1875.8,709.8c-5.4,3.3-12.9,7-22.2,9.7-13.8,3.9-25.8,3.8-33.6,3.1l-3.6,15.9c6.8,0,15.4-.5,25.1-2.8,14.5-3.4,25.6-9.3,32.9-14,.5-4,1-7.9,1.4-11.9h0Z"/>
      <path class="st54" d="M1820.2,716.1s9.4-73.9,8.2-76.2c.9-2.8,2.7-7.1,6.5-11,9-9.1,21.6-8.1,23.6-7.9,6.4.6,10.4,2.8,12.9,4.9,2.9,2.4,9.8,9.5,7.9,50.1-.5,11-1.5,20.2-2.3,26.8-5.1,3.4-12.2,7.4-21.3,10.3-14.9,4.7-27.9,4-35.6,3h.1Z"/>
      <rect class="st9" x="1768.4" y="660" width="12.4" height="44.8" rx="6.2" ry="6.2" transform="translate(800.1 2315) rotate(-80.2)"/>
      <path class="st54" d="M1797,685.8v.5c-.7,3.5-4,5.8-7.4,5-10.9-1.8-21.7-3.6-32.6-5.3-.3,0-2.3-.7-3.4-2.7s-.4-3.9-.3-4.2c5.5,2,12.2,4,20,5.3,9.2,1.6,17.3,1.8,23.8,1.5h0Z"/>
    </g>
    <path class="st23" d="M370.8,898.6L-1.8,971.9c-1.2-39.5-2.5-78.9-3.8-118.4,107.9-12.5,215.8-25,323.7-37.5l52.6,82.5h0Z"/>
    <polygon class="st50" points="253.3 963 182.2 939.1 182.2 851.9 318.9 830.2 253.3 963"/>
    <rect class="st73" x="-.5" y="687.3" width="190.4" height="10" rx="2.2" ry="2.2"/>
    <path class="st59" d="M184.9,708.9c-62.4,1.9-124.8,3.9-187.3,5.8.2,2.2.3,4.5.4,6.7,62.3-2.4,124.6-4.7,186.8-7.1v-5.4h.1Z"/>
    <rect class="st28" x="183.3" y="696.4" width="8.9" height="124.5" rx="3.3" ry="3.3"/>
    <rect class="st40" x="95.8" y="716.8" width="4.6" height="109.6"/>
    <rect class="st40" x="141.2" y="712.7" width="6.2" height="113.2"/>
    <rect class="st40" x="52.4" y="719.3" width="5.8" height="112.5"/>
    <rect class="st40" x="5.3" y="718.5" width="6" height="121.3"/>
    <path class="st16" d="M385.4,886.1c-52.4,12.1-104.9,24.2-157.3,36.3,9.2,3.5,18.5,7,27.7,10.4l155.4-42.1-25.8-4.6h0Z"/>
    <polygon class="st16" points="351.7 857.7 211.6 887.7 232.9 894.8 383.8 864 351.7 857.7"/>
    <path class="st16" d="M318.3,830.3c-44.1,6.9-88.3,13.8-132.4,20.7,8.7,2.9,17.4,5.8,26.1,8.8l135-22.9c-9.6-2.2-19.2-4.3-28.8-6.5h0Z"/>
    <polygon class="st57" points="254.1 961.5 255 940.7 413.8 898.6 412.9 916.9 254.1 961.5"/>
    <polygon class="st71" points="232.1 902.7 232.1 921.5 385.4 886.1 384.6 868.5 232.1 902.7"/>
    <polygon class="st71" points="211.6 865.2 211.6 887.7 351.7 857.7 350 841.9 211.6 865.2"/>
    <path class="st19" d="M228.7,930.2c-1.4-1.7-1.9-3.8-1.2-5.5.4-1,1.1-1.6,1.6-2,8.9,3.3,17.8,6.7,26.7,10l-.8,7.9-26.3-10.4h0Z"/>
    <path class="st19" d="M212.7,887.2c6.7,2.5,13.4,5,20.1,7.6l-.8,7.9c-8.2-3.1-16.4-6.1-24.6-9.2-1.4-3.2-.3-6.2,1.6-7,1.6-.7,3.4.5,3.7.7Z"/>
    <path class="st19" d="M212,859.8l-.4,5.4-28.1-8.6s-1.4-7.5,4.3-5.1l24.2,8.3h0Z"/>
    <path class="st24" d="M255.8,932.7l-.8,7.9,158.8-42.1s3.5-9.2-2.5-7.9l-155.4,42.1h0Z"/>
    <path class="st24" d="M232.9,894.8l-.8,7.9,152.5-34.2s7.4-4.5-.8-4.6l-150.9,30.8h0Z"/>
    <path class="st24" d="M212,859.8l-.4,5.4,138.4-23.3s5-6.1-2.9-5l-135,22.9h-.1Z"/>
    <rect class="st52" x="291.2" y="696.5" width="7.1" height="112.5"/>
    <path class="st46" d="M327.9,723.5h0c1.4,0,2.5,1.1,2.5,2.5v108.8c0,1.4-1.1,2.5-2.5,2.5h0c-1.4,0-2.5-1.1-2.5-2.5v-108.8c0-1.4,1.1-2.5,2.5-2.5Z"/>
    <path class="st61" d="M370.6,752.1h0c1.7,0,3.1,1.4,3.1,3.1v108.6c0,1.7-1.4,3.1-3.1,3.1h0c-1.7,0-3.1-1.4-3.1-3.1v-108.6c0-1.7,1.4-3.1,3.1-3.1Z"/>
    <rect class="st8" x="395" y="775.3" width="7.1" height="117.5" rx="3.5" ry="3.5"/>
    <path class="st49" d="M412.3,777c-34.9-27-69.8-54-104.8-81,.7-.8,1.1-1.9,1.1-3,0-2.7-2.2-4.9-4.9-4.9h-14c-2.7,0-4.9,2.2-4.9,4.9s2.2,4.9,4.9,4.9h5.1c-.2.3-.4.6-.6.9-.8,1.3-.4,3.2,1,4.2,18.8,13.7,38,28.1,57.4,43.3,17.8,13.9,35,27.7,51.5,41.4-.4,3.4.8,6.7,3.3,8.3,3.9,2.7,9.7.2,11.6-3.2,2.4-4.2.1-11.4-6.7-15.8h0Z"/>
    <path class="st39" d="M259.4,779.5h0c2.2,0,4,1.8,4,4v136.6c0,2.2-1.8,4-4,4h0c-2.2,0-4-1.8-4-4v-136.6c0-2.2,1.8-4,4-4Z"/>
    <path class="st53" d="M239.3,754.8h0c1.5,0,2.7,1.2,2.7,2.7v129.1c0,1.5-1.2,2.7-2.7,2.7h0c-1.5,0-2.7-1.2-2.7-2.7v-129.1c0-1.5,1.2-2.7,2.7-2.7Z"/>
    <path class="st26" d="M221.4,734.3h0c1.7,0,3.1,1.4,3.1,3.1v115.8c0,1.7-1.4,3.1-3.1,3.1h0c-1.7,0-3.1-1.4-3.1-3.1v-115.8c0-1.7,1.4-3.1,3.1-3.1Z"/>
    <rect class="st37" x="202" y="713.7" width="5.8" height="138.5" rx="2.9" ry="2.9"/>
    <path class="st73" d="M183.2,693.6c1.7-1.8,3.5-3.7,5.2-5.5,1-1.1,2.8-1,3.8,0,27.4,32.2,54.7,64.4,82.1,96.6,5.3,5.1,5.7,12.2,2.4,15.8-2.6,2.9-8.6,4.3-11.6,1.2-1.9-1.9-2.2-5.2-1-8.3-12-15.3-24.7-30.8-37.9-46.5-14.5-17.2-28.8-33.6-43-49.2-1-1.2-1-2.9,0-4h0Z"/>
    <path class="st23" d="M1547.4,897.6l372.6,73.3c1.2-39.5,2.5-78.9,3.8-118.4-107.9-12.5-215.8-25-323.7-37.5l-52.6,82.5h-.1Z"/>
    <polygon class="st50" points="1665 962 1736.1 938.1 1736.1 850.9 1599.4 829.2 1665 962"/>
    <rect class="st73" x="1728.4" y="686.3" width="190.4" height="10" rx="2.2" ry="2.2"/>
    <path class="st59" d="M1733.3,707.9c62.4,1.9,124.8,3.9,187.3,5.8-.2,2.2-.3,4.5-.4,6.7-62.3-2.4-124.6-4.7-186.8-7.1v-5.4h0Z"/>
    <rect class="st28" x="1726.1" y="695.4" width="8.8" height="124.5" rx="3.3" ry="3.3"/>
    <rect class="st40" x="1817.9" y="715.9" width="4.6" height="109.6"/>
    <rect class="st40" x="1770.8" y="711.7" width="6.2" height="113.2"/>
    <rect class="st40" x="1860" y="718.3" width="5.8" height="112.5"/>
    <rect class="st40" x="1907" y="717.5" width="6" height="121.3"/>
    <path class="st16" d="M1532.9,885.1c52.4,12.1,104.9,24.2,157.3,36.3-9.2,3.5-18.5,7-27.7,10.4l-155.4-42.1,25.8-4.6h0Z"/>
    <polygon class="st16" points="1566.6 856.7 1706.7 886.7 1685.4 893.8 1534.5 863 1566.6 856.7"/>
    <path class="st16" d="M1600,829.3c44.1,6.9,88.3,13.8,132.4,20.7-8.7,2.9-17.4,5.8-26.1,8.8l-135-22.9c9.6-2.2,19.2-4.3,28.8-6.5h-.1Z"/>
    <polygon class="st57" points="1664.1 960.5 1663.3 939.7 1504.5 897.6 1505.3 915.9 1664.1 960.5"/>
    <polygon class="st71" points="1686.2 901.7 1686.2 920.5 1532.9 885.1 1533.7 867.5 1686.2 901.7"/>
    <polygon class="st71" points="1706.7 864.2 1706.7 886.7 1566.6 856.7 1568.3 840.9 1706.7 864.2"/>
    <path class="st19" d="M1689.6,929.2c1.4-1.7,1.9-3.8,1.2-5.5-.4-1-1.2-1.6-1.6-2-8.9,3.3-17.8,6.7-26.7,10l.8,7.9,26.3-10.4h0Z"/>
    <path class="st19" d="M1705.5,886.2c-6.7,2.5-13.4,5-20.1,7.6l.8,7.9c8.2-3.1,16.4-6.1,24.6-9.2,1.4-3.2.3-6.2-1.6-7-1.6-.7-3.4.5-3.7.7h0Z"/>
    <path class="st19" d="M1706.2,858.8l.4,5.4,28.1-8.6s1.4-7.5-4.3-5.1l-24.2,8.3h0Z"/>
    <path class="st24" d="M1662.5,931.7l.8,7.9-158.8-42.1s-3.5-9.2,2.5-7.9l155.4,42.1h0Z"/>
    <path class="st24" d="M1685.4,893.8l.8,7.9-152.5-34.2s-7.4-4.5.8-4.6l150.9,30.8h0Z"/>
    <path class="st24" d="M1706.2,858.8l.4,5.4-138.4-23.3s-5-6.1,2.9-5l135,22.9h0Z"/>
    <rect class="st52" x="1620" y="695.5" width="7.1" height="112.5"/>
    <path class="st46" d="M1590.4,836.3h0c-1.4,0-2.5-1.1-2.5-2.5v-108.8c0-1.4,1.1-2.5,2.5-2.5h0c1.4,0,2.5,1.1,2.5,2.5v108.8c0,1.4-1.1,2.5-2.5,2.5Z"/>
    <path class="st61" d="M1547.7,865.9h0c-1.7,0-3.1-1.4-3.1-3.1v-108.6c0-1.7,1.4-3.1,3.1-3.1h0c1.7,0,3.1,1.4,3.1,3.1v108.6c0,1.7-1.4,3.1-3.1,3.1Z"/>
    <rect class="st8" x="1516.2" y="774.3" width="7.1" height="117.5" rx="3.5" ry="3.5"/>
    <path class="st49" d="M1506,776c34.9-27,69.8-54,104.8-81-.7-.8-1.1-1.9-1.1-3,0-2.7,2.2-4.9,4.9-4.9h14c2.7,0,4.9,2.2,4.9,4.9s-2.2,4.9-4.9,4.9h-5.1c.2.3.4.6.6.9.8,1.3.4,3.2-1,4.2-18.8,13.7-38,28.1-57.4,43.3-17.8,13.9-35,27.7-51.4,41.4.4,3.4-.8,6.7-3.3,8.3-3.9,2.7-9.7.2-11.6-3.2-2.4-4.2,0-11.4,6.7-15.8h0Z"/>
    <path class="st39" d="M1658.9,778.5h0c2.2,0,3.9,1.8,3.9,4v136.5c0,2.2-1.8,4-3.9,4h0c-2.2,0-3.9-1.8-3.9-4v-136.5c0-2.2,1.8-4,3.9-4Z"/>
    <rect class="st53" x="1676.2" y="753.8" width="5.4" height="134.5" rx="2.7" ry="2.7"/>
    <path class="st26" d="M1696.9,855.4h0c-1.7,0-3.1-1.4-3.1-3.1v-115.8c0-1.7,1.4-3.1,3.1-3.1h0c1.7,0,3.1,1.4,3.1,3.1v115.8c0,1.7-1.4,3.1-3.1,3.1Z"/>
    <path class="st37" d="M1713.3,851.2h0c-1.6,0-2.9-1.3-2.9-2.9v-132.6c0-1.6,1.3-2.9,2.9-2.9h0c1.6,0,2.9,1.3,2.9,2.9v132.6c0,1.6-1.3,2.9-2.9,2.9h0Z"/>
    <path class="st73" d="M1735.1,692.6c-1.7-1.8-3.5-3.7-5.2-5.5-1-1.1-2.8-1-3.8,0-27.4,32.2-54.7,64.4-82.1,96.6-5.3,5.1-5.7,12.2-2.4,15.8,2.6,2.9,8.6,4.3,11.6,1.2,1.8-1.9,2.2-5.2,1-8.3,12-15.3,24.7-30.8,37.9-46.5,14.5-17.2,28.8-33.6,43-49.2,1-1.2,1-2.9,0-4h0Z"/>
  </g>
  <g id="brillo-luces">
    <circle class="st69" cx="684.2" cy="208.1" r="37.8"/>
    <circle class="st69" cx="1236.4" cy="210.1" r="37.8"/>
  </g>
  <g id="estructura-lamparas">
    <path class="st15" d="M758.2,191.6c-.8-1.1-2.6-1.2-4.2-1.2-6.8-.3-13.1,5.1-15,7.5-5.1,4.8-7.7,25.7-8.7,34.1-1.5,13.3-1,15.8-2.8,23.1-1.2,5-2,8.2-4.3,12.1-1.7,3-6.5,11.1-15,12.6-7.8,1.4-12.9-2.7-15.8-6.3-.4-.5-4.8-6.1-4.7-10,0-2.3-1.2-2.2-4-2.2s-3.2-.6-3.7-.2c-1.4,1.1.5,5.6,1.3,7.5,1.9,4.5,4.1,9.7,9.8,13.8,4.6,3.7,11.4,5,16.8,3.7,13-2.6,20.3-15.6,20.8-16.5,2.6-4.8,3.6-9.5,4.5-14,.6-2.9,1-6.1,1.8-12.5,1.4-11.3,2.1-21,4.3-29.1,1.8-6.3,3.1-10.9,7-13,3.4-1.8,6.5-1.8,6.5-1.8,2.3,0,3.7.7,4.7-.2.2-.2.5-.6.7-4.3.2-2.6,0-3-.2-3.3h0l.2.2h0Z"/>
    <path class="st15" d="M705.9,238.3c.2.2.4.6.5,3.3.2,3,0,3.4-.2,3.7s-.4.6-3,2c-2.3,1.3-2.8,1.4-3.7,2.2-.5.4-1.2,1-1.7,2-1.1,2.1,0,3.1-.5,5.2-.6,2.1-2.6,3.4-5.2,5.1-2.2,1.5-3.1,1.5-3.5,2.7-.7,1.8.7,3.4-.2,4.3,0,.1-.4.3-2.2.5-2.3.2-3.5.3-4,0-1.5-1,0-3.5-1.8-5.5-.7-.8-1.1-.5-2.8-1.5-1.1-.6-3.6-2-4.8-4.5-1.3-2.6.2-3.8-1.3-5.6-.5-.6-.5-.3-3.5-2.5-1.6-1.2-2.2-1.7-2.5-2-1.3-1.2-2-1.9-2.3-3-.3-.9,0-1,0-3s-.5-2.9,0-3.5c.5-.7,1.5-.6,3.8-.5,1.8,0,3.6,0,5.3.2,1.8.2,4.5.1,9.8,0,6.5-.1,13,.5,19.5-.3.9-.1,3.2-.4,4.2.8h.1Z"/>
    <path class="st15" d="M655.9,174.2c.5-3.6.7-5.4,1.9-6.1.8-.5,1-.1,2.7-.5,2.6-.6,4.4-1.9,5.1-2.5,1.7-1.3,2.6-2.8,3.6-4.2.2-.3.6-1.1,1.5-2.7,2-3.6,2.2-4,2.4-4.7.3-1.5.2-2.7.2-3.8,0-1.8-.2-2.9-.8-4.2-.8-1.5-1.5-1.4-1.9-2.7-.3-1-.2-2.5.5-3.5.8-1.1,2.2-1.4,4.4-1.8,3.1-.6,4.1,0,4.9-1,.3-.3.4-.6.5-3.7,0-2.7.2-4,.2-4.7,0-2.5-.4-3.1.2-3.7,0,0,.2-.2.5-.2h.2c3.2-.2,3.6,0,3.8.2.6.5.2,1.1.2,3.7s0,2,.2,4.7c.2,3.1.2,3.4.5,3.7.8.9,2,.4,5.2,1,2.4.4,3.8.7,4.7,1.8.8,1,.9,2.4.5,3.5-.4,1.2-1.1,1.2-2,2.7-.7,1.2-.8,2.4-.9,4.2,0,1.1-.2,2.4.2,3.8,0,.6.3,1,2.5,4.7,1,1.6,1.4,2.4,1.6,2.7,1,1.4,2,2.8,3.8,4.2.7.6,2.6,1.9,5.4,2.5,1.8.4,2.1,0,2.9.5,1.2.8,1.5,2.6,2,6.1.2,1.1.3,2.8.2,4.8,0,1.8-.2,3.1-.9,3.3-.8.2-1.5-1.2-3.8-2.5-1.4-.8-2.7-1.1-3.9-1.3-3-.6-5.4-.3-6.8-.2-3.7.4-7.4,0-11.1,0h-2.5c-.6,0-1.5.1-2.6.2-2,.1-4.3.2-7.1.2s-2.3,0-3.5-.2c-1.4-.1-3.6-.5-6.5.2-1.2.3-2.4.5-3.7,1.3-2.2,1.3-2.8,2.8-3.6,2.5-.6-.2-.7-1.5-.8-3.3,0-2.1,0-3.7.2-4.8h-.3v-.2h0Z"/>
    <path class="st15" d="M1162.3,193.6c.8-1.1,2.6-1.2,4.2-1.2,6.8-.3,13.1,5.1,15,7.5,5.1,4.8,7.7,25.7,8.7,34.1,1.5,13.3,1.1,15.8,2.8,23.1,1.2,5,2,8.2,4.3,12.1,1.7,3,6.5,11.1,15,12.6,7.8,1.4,12.9-2.7,15.8-6.3.4-.5,4.8-6.1,4.7-10,0-2.3,1.2-2.2,4-2.2s3.2-.6,3.7-.2c1.4,1.1-.5,5.6-1.3,7.5-1.9,4.5-4.1,9.7-9.8,13.8-4.6,3.7-11.4,5-16.8,3.7-13.1-2.6-20.3-15.6-20.8-16.5-2.6-4.8-3.6-9.5-4.5-14-.6-2.9-1-6.1-1.8-12.5-1.4-11.3-2.1-21-4.3-29.1-1.8-6.3-3.1-10.9-7-13-3.4-1.8-6.5-1.8-6.5-1.8-2.3,0-3.7.7-4.7-.2-.2-.2-.4-.6-.7-4.3-.2-2.6,0-3,.2-3.3h0l-.2.2h0Z"/>
    <path class="st15" d="M1214.7,240.3c-.2.2-.4.6-.5,3.3-.2,3,0,3.4.2,3.7s.4.6,3,2c2.3,1.3,2.8,1.4,3.7,2.2.5.4,1.2,1,1.7,2,1.1,2.1,0,3.1.5,5.2.6,2.1,2.6,3.4,5.2,5.1,2.2,1.5,3.1,1.5,3.5,2.7.7,1.8-.7,3.4.2,4.3,0,.1.4.3,2.2.5,2.3.2,3.5.3,4,0,1.5-1,0-3.5,1.8-5.5.7-.8,1.1-.5,2.8-1.5,1.1-.6,3.6-2,4.8-4.5,1.3-2.6-.2-3.8,1.3-5.6s.6-.3,3.5-2.5c1.6-1.2,2.2-1.7,2.5-2,1.3-1.2,2-1.9,2.3-3,.3-.9,0-1,0-3s.4-2.9,0-3.5c-.5-.7-1.6-.6-3.8-.5-1.8,0-3.6,0-5.3.2-1.8.2-4.5.1-9.8,0-6.5-.1-13,.5-19.4-.3-.9-.1-3.2-.4-4.2.8h-.2,0Z"/>
    <path class="st15" d="M1264.7,176.2c-.4-3.6-.7-5.4-1.9-6.1-.8-.5-1-.1-2.7-.5-2.6-.6-4.4-1.9-5.1-2.5-1.7-1.3-2.6-2.8-3.6-4.2-.2-.3-.6-1.1-1.5-2.7-2.1-3.6-2.2-4-2.4-4.7-.3-1.5-.2-2.7-.2-3.8,0-1.8.2-2.9.8-4.2.8-1.5,1.5-1.4,1.9-2.7.3-1,.2-2.5-.5-3.5-.8-1.1-2.2-1.4-4.4-1.8-3.1-.6-4.1,0-4.9-1-.3-.3-.4-.6-.5-3.7,0-2.7-.2-4-.2-4.7,0-2.5.4-3.1-.2-3.7,0,0-.2-.2-.5-.2h-.2c-3.2-.2-3.6,0-3.8.2-.6.5-.2,1.1-.2,3.7s0,2-.2,4.7c-.2,3.1-.2,3.4-.5,3.7-.8.9-1.9.4-5.2,1-2.4.4-3.8.7-4.7,1.8-.8,1-.9,2.4-.5,3.5.4,1.2,1.1,1.2,2,2.7.7,1.2.8,2.4.9,4.2,0,1.1.2,2.4-.2,3.8,0,.6-.3,1-2.5,4.7-.9,1.6-1.4,2.4-1.6,2.7-1,1.4-2,2.8-3.8,4.2-.7.6-2.6,1.9-5.4,2.5-1.8.4-2.1,0-2.9.5-1.2.8-1.5,2.6-2,6.1-.2,1.1-.3,2.8-.2,4.8,0,1.8.2,3.1.9,3.3.8.2,1.5-1.2,3.8-2.5,1.4-.8,2.7-1.1,3.9-1.3,3-.6,5.4-.3,6.8-.2,3.7.4,7.4,0,11.1,0h2.5c.6,0,1.5.1,2.6.2,2,.1,4.3.2,7.1.2s2.3,0,3.4-.2c1.4-.1,3.6-.5,6.5.2,1.2.3,2.4.5,3.7,1.3,2.2,1.3,2.8,2.8,3.6,2.5.6-.2.7-1.5.8-3.3,0-2.1,0-3.7-.2-4.8h.4v-.2h0Z"/>
  </g>
</svg>